<?xml version="1.0" encoding="utf-8"?>
<!-- Generator: Adobe Illustrator 19.1.0, SVG Export Plug-In . SVG Version: 6.00 Build 0)  -->
<svg version="1.1" xmlns="http://www.w3.org/2000/svg" xmlns:xlink="http://www.w3.org/1999/xlink" x="0px" y="0px"
	 viewBox="0 0 127.3 102.7" style="enable-background:new 0 0 127.3 102.7;" xml:space="preserve">
<style type="text/css">
	.st0{fill:none;stroke:#3EBFB8;stroke-width:5;stroke-miterlimit:10;}
	.st1{fill:none;stroke:#3EBFB8;stroke-width:5;stroke-linejoin:round;stroke-miterlimit:10;}
	.st2{fill:none;stroke:#3EBFB8;stroke-width:5;stroke-linecap:round;stroke-miterlimit:10;}
	.st3{fill:none;stroke:#3EBFB8;stroke-width:5;stroke-linecap:round;stroke-linejoin:round;stroke-miterlimit:10;}
	.st4{fill:#3EBFB8;}
	.st5{fill:#FFFFFF;}
</style>
<g id="Layer_1">
	<g>
		<path class="st0" d="M109.3,36.3c-1.3,0-2.6,0.2-3.8,0.6c-5.3-19.1-22.8-33-43.6-33c-20.6,0-38,13.8-43.4,32.7
			c-0.8-0.2-1.6-0.2-2.4-0.2c-6.6,0-11.9,5.3-11.9,11.9S9.6,60,16.2,60c0.6,0,1.3-0.1,1.9-0.2C22.9,79.6,40.8,94.3,62,94.3
			c21.4,0,39.3-14.8,44-34.7c1.1,0.3,2.2,0.5,3.3,0.5c6.6,0,11.9-5.3,11.9-11.9S115.9,36.3,109.3,36.3z"/>
		<g>
			<g>
				<path class="st4" d="M63.5,1.2c-8.7-1-16.6,6.8-14.6,15.6c2.1,9.3,12.4,13.5,20.9,10.1c4.1-1.7,7.3-4.5,6.7-9.3
					c-0.6-4.5-3.9-8.2-8.4-9C64.5,8,60,9.5,58.5,13.2c-1.6,3.9,1.4,7.5,5.3,7.4c3.2-0.1,3.2-5.1,0-5c0.8-2.1,2.3-2.7,4.4-1.8
					c1.8,0.8,2.9,2.1,3.4,3.9c0,2.7-2.6,4.4-4.8,5.1c-3.5,1-7.5,0.3-10.2-2.3c-6.2-6-1.1-15.1,7-14.2C66.7,6.6,66.7,1.6,63.5,1.2
					L63.5,1.2z"/>
			</g>
		</g>
		<path class="st3" d="M37.5,45.5c0,10.9,16.4,10.9,16.4,0"/>
		<path class="st3" d="M68.9,45.5c0,10.9,16.4,10.9,16.4,0"/>
		<circle class="st4" cx="62.1" cy="67.5" r="3.3"/>
	</g>
</g>
<g id="Layer_2">
</g>
</svg>
