<?xml version="1.0" encoding="utf-8"?>
<!-- Generator: Adobe Illustrator 19.1.0, SVG Export Plug-In . SVG Version: 6.00 Build 0)  -->
<svg version="1.1" xmlns="http://www.w3.org/2000/svg" xmlns:xlink="http://www.w3.org/1999/xlink" x="0px" y="0px"
	 viewBox="0 0 110.4 102" style="enable-background:new 0 0 110.4 102;" xml:space="preserve">
<style type="text/css">
	.st0{fill:none;stroke:#3EBFB8;stroke-width:5;stroke-miterlimit:10;}
	.st1{fill:none;stroke:#3EBFB8;stroke-width:5;stroke-linejoin:round;stroke-miterlimit:10;}
	.st2{fill:none;stroke:#3EBFB8;stroke-width:5;stroke-linecap:round;stroke-miterlimit:10;}
	.st3{fill:none;stroke:#3EBFB8;stroke-width:5;stroke-linecap:round;stroke-linejoin:round;stroke-miterlimit:10;}
	.st4{fill:#3EBFB8;}
	.st5{fill:#FFFFFF;}
</style>
<g id="Layer_1">
	<path class="st0" d="M48,95.3c23.1,0,41.8-24.9,41.8-55.6H6.2C6.2,70.4,24.9,95.3,48,95.3z"/>
	<line class="st3" x1="26.5" y1="6.5" x2="26.5" y2="29.1"/>
	<line class="st3" x1="48" y1="6.5" x2="48" y2="29.1"/>
	<line class="st3" x1="67.6" y1="6.5" x2="67.6" y2="29.1"/>
	<path class="st3" d="M93.1,48.6c-1.4,0-2.7,0.2-3.9,0.6c0.4-3.2,0.6-6.4,0.6-9.7H6.2c0,30.7,18.7,55.6,41.8,55.6
		c15,0,28.1-10.5,35.5-26.2c2.3,2.8,5.7,4.5,9.6,4.5c6.9,0,12.4-5.6,12.4-12.4C105.5,54.2,100,48.6,93.1,48.6z"/>
	<circle class="st4" cx="20.7" cy="55.7" r="4"/>
	<circle class="st4" cx="34.3" cy="55.7" r="4"/>
	<circle class="st4" cx="48.1" cy="55.7" r="4"/>
	<circle class="st4" cx="61.7" cy="55.7" r="4"/>
	<circle class="st4" cx="73.9" cy="55.7" r="4"/>
	<circle class="st4" cx="28.2" cy="68.5" r="4"/>
	<circle class="st4" cx="42" cy="68.5" r="4"/>
	<circle class="st4" cx="55.6" cy="68.5" r="4"/>
	<circle class="st4" cx="67.8" cy="68.5" r="4"/>
</g>
<g id="Layer_2">
</g>
</svg>
