<svg xmlns="http://www.w3.org/2000/svg" viewBox="244 640 17.574 23.294">
  <defs>
    <style>
      .cls-1 {
        fill: #0f7b67;
      }
    </style>
  </defs>
  <g id="placeholder-filled-tool-shape-for-maps" transform="translate(244 640)">
    <path id="Path_19" data-name="Path 19" class="cls-1" d="M23.277,0A8.771,8.771,0,0,0,14.5,8.777c0,2.525,1.262,4.813,2.5,6.923a36.81,36.81,0,0,0,5.444,7.239,1.167,1.167,0,0,0,1.677,0A33.858,33.858,0,0,0,29,16.825c1.479-2.387,3.077-5.148,3.077-8.047A8.814,8.814,0,0,0,23.277,0Zm0,13.866A5.325,5.325,0,1,1,28.6,8.541,5.328,5.328,0,0,1,23.277,13.866Z" transform="translate(-14.5)"/>
  </g>
</svg>
