<svg xmlns="http://www.w3.org/2000/svg" viewBox="449 641 21.048 21">
  <defs>
    <style>
      .cls-1 {
        fill: #0f7b67;
      }
    </style>
  </defs>
  <g id="call-answer" transform="translate(449 641)">
    <g id="Group_12" data-name="Group 12" transform="translate(0 0)">
      <g id="Group_11" data-name="Group 11">
        <path id="Path_20" data-name="Path 20" class="cls-1" d="M20.575,17l-3.25-3.251a1.7,1.7,0,0,0-2.39.045L13.3,15.435l-.323-.18a16.3,16.3,0,0,1-3.939-2.849A16.387,16.387,0,0,1,6.181,8.46c-.061-.11-.119-.215-.176-.316l1.1-1.1.54-.541a1.693,1.693,0,0,0,.044-2.39L4.437.865A1.693,1.693,0,0,0,2.048.91l-.916.921.025.025A5.3,5.3,0,0,0,.4,3.188,5.52,5.52,0,0,0,.066,4.539c-.429,3.558,1.2,6.81,5.61,11.223,6.1,6.1,11.015,5.639,11.227,5.616a5.492,5.492,0,0,0,1.354-.34,5.279,5.279,0,0,0,1.327-.752l.02.018.928-.909A1.7,1.7,0,0,0,20.575,17Z" transform="translate(0 -0.394)"/>
      </g>
    </g>
  </g>
</svg>
