<svg xmlns="http://www.w3.org/2000/svg" viewBox="944.761 642 33.573 19">
  <defs>
    <style>
      .cls-1 {
        fill: #0f7b67;
      }
    </style>
  </defs>
  <path id="Path_18" data-name="Path 18" class="cls-1" d="M32.185,36.334A45.467,45.467,0,0,0,28.9,33.026c-1-.979-1.067-1.548-.26-2.678.881-1.234,1.828-2.42,2.717-3.648a13.248,13.248,0,0,0,2.115-3.667c.277-.874.032-1.261-.865-1.414a2.768,2.768,0,0,0-.471-.028l-5.32-.006a1.189,1.189,0,0,0-1.249.857c-.313.785-.635,1.569-1.008,2.327a19.121,19.121,0,0,1-3.114,4.783c-.292.31-.615.7-1.1.54-.61-.223-.79-1.228-.78-1.568l-.005-6.14c-.118-.877-.313-1.268-1.184-1.439H12.844a1.758,1.758,0,0,0-1.5.746c-.227.267-.3.439.171.528a1.844,1.844,0,0,1,1.571,1.687,18.858,18.858,0,0,1,.078,4.42,4.11,4.11,0,0,1-.282,1.263.744.744,0,0,1-1.265.372,5.132,5.132,0,0,1-1.226-1.348A29.69,29.69,0,0,1,7.144,22.6,1.405,1.405,0,0,0,5.815,21.6c-1.6-.025-3.192-.03-4.788,0-.96.018-1.247.484-.856,1.355a59.422,59.422,0,0,0,6.2,11.05,15.435,15.435,0,0,0,4.709,4.408,12.524,12.524,0,0,0,7,1.506c1.157-.054,1.5-.355,1.558-1.509a5.109,5.109,0,0,1,.515-2.283,1.022,1.022,0,0,1,1.628-.4,4.616,4.616,0,0,1,.88.784c.651.713,1.279,1.447,1.955,2.135a3.782,3.782,0,0,0,3.115,1.269h4.889c.788-.051,1.2-1.017.744-1.9A9.413,9.413,0,0,0,32.185,36.334Z" transform="translate(944.759 621.056)"/>
</svg>
