<?xml version="1.0" encoding="utf-8"?>
<!-- Generator: Adobe Illustrator 19.1.0, SVG Export Plug-In . SVG Version: 6.00 Build 0)  -->
<svg version="1.1" xmlns="http://www.w3.org/2000/svg" xmlns:xlink="http://www.w3.org/1999/xlink" x="0px" y="0px"
	 viewBox="0 0 74.7 135.1" style="enable-background:new 0 0 74.7 135.1;" xml:space="preserve">
<style type="text/css">
	.st0{fill:none;stroke:#3EBFB8;stroke-width:5;stroke-miterlimit:10;}
	.st1{fill:none;stroke:#3EBFB8;stroke-width:5;stroke-linejoin:round;stroke-miterlimit:10;}
	.st2{fill:none;stroke:#3EBFB8;stroke-width:5;stroke-linecap:round;stroke-miterlimit:10;}
	.st3{fill:none;stroke:#3EBFB8;stroke-width:5;stroke-linecap:round;stroke-linejoin:round;stroke-miterlimit:10;}
	.st4{fill:#3EBFB8;}
	.st5{fill:#FFFFFF;}
</style>
<g id="Layer_1">
	<g>
		<g>
			<path class="st4" d="M60,99.6H13.3c-1.4,0-2.5-1.1-2.5-2.5V43.9c0-1.4,1.1-2.5,2.5-2.5H60c1.4,0,2.5,1.1,2.5,2.5v53.2
				C62.5,98.5,61.3,99.6,60,99.6z M15.8,94.6h41.6V46.4H15.8V94.6z"/>
		</g>
	</g>
	<g>
		<g>
			<path class="st4" d="M66.5,46.4H5.9c-1.4,0-2.5-1.1-2.5-2.5V27.7c0-1.4,1.1-2.5,2.5-2.5h60.6c1.4,0,2.5,1.1,2.5,2.5v16.1
				C69,45.3,67.9,46.4,66.5,46.4z M8.4,41.4H64V30.2H8.4V41.4z"/>
		</g>
	</g>
	<g>
		<g>
			<path class="st4" d="M58.3,30.2h-45c-1.4,0-2.5-1.1-2.5-2.5V5.6c0-1.4,1.1-2.5,2.5-2.5h45c1.4,0,2.5,1.1,2.5,2.5v22.1
				C60.8,29.1,59.7,30.2,58.3,30.2z M15.8,25.2h40V8.1h-40V25.2z"/>
		</g>
	</g>
	<g>
		<g>
			<path class="st4" d="M29.7,99.6c-1.4,0-2.5-1.1-2.5-2.5V43.9c0-1.4,1.1-2.5,2.5-2.5s2.5,1.1,2.5,2.5v53.2
				C32.2,98.5,31.1,99.6,29.7,99.6z"/>
		</g>
	</g>
	<g>
		<g>
			<path class="st4" d="M43.6,99.6c-1.4,0-2.5-1.1-2.5-2.5V43.9c0-1.4,1.1-2.5,2.5-2.5s2.5,1.1,2.5,2.5v53.2
				C46.1,98.5,45,99.6,43.6,99.6z"/>
		</g>
	</g>
	<g>
		<g>
			<path class="st4" d="M36.6,131.3c-0.8,0-1.5-0.4-2-1L11.3,98.6c-0.6-0.8-0.6-1.8-0.2-2.6c0.4-0.8,1.3-1.4,2.2-1.4H60
				c0.9,0,1.8,0.5,2.2,1.4s0.3,1.8-0.2,2.6l-23.3,31.7C38.2,130.9,37.4,131.3,36.6,131.3z M18.3,99.6l18.4,25l18.4-25H18.3z"/>
		</g>
	</g>
	<g>
		<path class="st4" d="M41.7,124.4H31.6c-1.4,0-2.5-1.1-2.5-2.5s1.1-2.5,2.5-2.5h10.1c1.4,0,2.5,1.1,2.5,2.5S43,124.4,41.7,124.4z"
			/>
	</g>
</g>
<g id="Layer_2">
</g>
</svg>
