<?xml version="1.0" encoding="utf-8"?>
<!-- Generator: Adobe Illustrator 19.1.0, SVG Export Plug-In . SVG Version: 6.00 Build 0)  -->
<svg version="1.1" xmlns="http://www.w3.org/2000/svg" xmlns:xlink="http://www.w3.org/1999/xlink" x="0px" y="0px"
	 viewBox="0 0 130.3 96.7" style="enable-background:new 0 0 130.3 96.7;" xml:space="preserve">
<style type="text/css">
	.st0{fill:none;stroke:#3EBFB8;stroke-width:5;stroke-miterlimit:10;}
	.st1{fill:none;stroke:#3EBFB8;stroke-width:5;stroke-linejoin:round;stroke-miterlimit:10;}
	.st2{fill:none;stroke:#3EBFB8;stroke-width:5;stroke-linecap:round;stroke-miterlimit:10;}
	.st3{fill:none;stroke:#3EBFB8;stroke-width:5;stroke-linecap:round;stroke-linejoin:round;stroke-miterlimit:10;}
	.st4{fill:#3EBFB8;}
	.st5{fill:#FFFFFF;}
</style>
<g id="Layer_1">
	<path class="st0" d="M112.1,91.8H18.2c-6.6,0-12-5.4-12-12V32.8c0-6.6,5.4-12,12-12h93.9c6.6,0,12,5.4,12,12v46.9
		C124.1,86.4,118.7,91.8,112.1,91.8z"/>
	<circle class="st0" cx="72.9" cy="54.8" r="20.4"/>
	<path class="st0" d="M38.5,44.3H22.9c-3.5,0-6.3-2.9-6.3-6.3v0c0-3.5,2.9-6.3,6.3-6.3h15.6c3.5,0,6.3,2.9,6.3,6.3v0
		C44.8,41.5,42,44.3,38.5,44.3z"/>
	<path class="st0" d="M41,20.8H24.4c-4.3,0-7.9-3.5-7.9-7.9v0c0-4.3,3.5-7.9,7.9-7.9H41c4.3,0,7.9,3.5,7.9,7.9v0
		C48.9,17.3,45.3,20.8,41,20.8z"/>
	<path class="st0" d="M22,80.5L22,80.5c-1.7,0-3.2-1.4-3.2-3.2l0,0c0-1.7,1.4-3.2,3.2-3.2h0c1.7,0,3.2,1.4,3.2,3.2l0,0
		C25.1,79.1,23.7,80.5,22,80.5z"/>
</g>
<g id="Layer_2">
</g>
</svg>
