<?xml version="1.0" encoding="utf-8"?>
<!-- Generator: Adobe Illustrator 19.1.0, SVG Export Plug-In . SVG Version: 6.00 Build 0)  -->
<svg version="1.1" xmlns="http://www.w3.org/2000/svg" xmlns:xlink="http://www.w3.org/1999/xlink" x="0px" y="0px"
	 viewBox="0 0 89.7 131.3" style="enable-background:new 0 0 89.7 131.3;" xml:space="preserve">
<style type="text/css">
	.st0{fill:none;stroke:#3EBFB8;stroke-width:5;stroke-miterlimit:10;}
	.st1{fill:none;stroke:#3EBFB8;stroke-width:5;stroke-linejoin:round;stroke-miterlimit:10;}
	.st2{fill:none;stroke:#3EBFB8;stroke-width:5;stroke-linecap:round;stroke-miterlimit:10;}
	.st3{fill:none;stroke:#3EBFB8;stroke-width:5;stroke-linecap:round;stroke-linejoin:round;stroke-miterlimit:10;}
	.st4{fill:#3EBFB8;}
	.st5{fill:#FFFFFF;}
</style>
<g id="Layer_1">
	<g>
		<polygon class="st3" points="67.8,57.2 23.9,57.2 18.3,24.8 72.9,24.8 		"/>
		<rect x="7.2" y="6.3" class="st3" width="76.3" height="18.5"/>
		<path class="st4" d="M78.7,38.1H62.9c-1.4,0-2.5-1.1-2.5-2.5v-0.3c0-1.4,1.1-2.5,2.5-2.5h15.7c1.4,0,2.5,1.1,2.5,2.5v0.3
			C81.2,36.9,80.1,38.1,78.7,38.1z"/>
		<path class="st3" d="M75,94.2c-21.3,12.6-36.5,12.6-57.8,0l-3-37H78L75,94.2z"/>
		<polyline class="st3" points="34.7,102.1 29.9,124.7 62.3,124.7 57.4,102.1 		"/>
		<line class="st3" x1="17.2" y1="68.8" x2="74.9" y2="68.8"/>
	</g>
</g>
<g id="Layer_2">
</g>
</svg>
