<?xml version="1.0" encoding="utf-8"?>
<!-- Generator: Adobe Illustrator 19.1.0, SVG Export Plug-In . SVG Version: 6.00 Build 0)  -->
<svg version="1.1" xmlns="http://www.w3.org/2000/svg" xmlns:xlink="http://www.w3.org/1999/xlink" x="0px" y="0px"
	 viewBox="0 0 131 128.3" style="enable-background:new 0 0 131 128.3;" xml:space="preserve">
<style type="text/css">
	.st0{fill:none;stroke:#3EBFB8;stroke-width:5;stroke-miterlimit:10;}
	.st1{fill:none;stroke:#3EBFB8;stroke-width:5;stroke-linejoin:round;stroke-miterlimit:10;}
	.st2{fill:none;stroke:#3EBFB8;stroke-width:5;stroke-linecap:round;stroke-miterlimit:10;}
	.st3{fill:none;stroke:#3EBFB8;stroke-width:5;stroke-linecap:round;stroke-linejoin:round;stroke-miterlimit:10;}
	.st4{fill:#3EBFB8;}
	.st5{fill:#FFFFFF;}
</style>
<g id="Layer_1">
	<path class="st0" d="M111.3,32.1L96.8,19.3c-3.7-3.2-4-8.9-0.8-12.6l0,0c3.2-3.7,8.9-4,12.6-0.8l14.5,12.8c3.7,3.2,4,8.9,0.8,12.6
		l0,0C120.7,35,115,35.3,111.3,32.1z"/>
	<path class="st0" d="M50.2,120.7L9.7,80.1c-3.5-3.5-3.5-9.1,0-12.6l0,0c3.5-3.5,9.1-3.5,12.6,0l40.6,40.6c3.5,3.5,3.5,9.1,0,12.6
		l0,0C59.4,124.1,53.7,124.1,50.2,120.7z"/>
	<polygon class="st3" points="95.1,17.8 89.5,22.9 71.6,22.9 22.1,66.8 64.2,108.9 108,58.8 108,38.9 113.1,33.7 	"/>
	<line class="st2" x1="98.9" y1="19.3" x2="106" y2="12.1"/>
	<line class="st2" x1="104.3" y1="24.7" x2="111.4" y2="17.6"/>
	<line class="st2" x1="110.5" y1="30.9" x2="117.7" y2="23.8"/>
	<circle class="st4" cx="20.4" cy="79.4" r="2.6"/>
	<circle class="st4" cx="27.9" cy="86.9" r="2.6"/>
	<circle class="st4" cx="36.9" cy="95.9" r="2.6"/>
	<circle class="st4" cx="44.4" cy="103.4" r="2.6"/>
	<circle class="st4" cx="52.2" cy="111.2" r="2.6"/>
	<circle class="st4" cx="75.8" cy="29.5" r="2.6"/>
	<circle class="st4" cx="84.8" cy="38.4" r="2.6"/>
	<circle class="st4" cx="92.3" cy="46" r="2.6"/>
	<circle class="st4" cx="100.1" cy="53.8" r="2.6"/>
</g>
<g id="Layer_2">
</g>
</svg>
