<?xml version="1.0" encoding="utf-8"?>
<!-- Generator: Adobe Illustrator 19.1.0, SVG Export Plug-In . SVG Version: 6.00 Build 0)  -->
<svg version="1.1" xmlns="http://www.w3.org/2000/svg" xmlns:xlink="http://www.w3.org/1999/xlink" x="0px" y="0px"
	 viewBox="0 0 54.8 141.7" style="enable-background:new 0 0 54.8 141.7;" xml:space="preserve">
<style type="text/css">
	.st0{fill:none;stroke:#3EBFB8;stroke-width:5;stroke-miterlimit:10;}
	.st1{fill:none;stroke:#3EBFB8;stroke-width:5;stroke-linejoin:round;stroke-miterlimit:10;}
	.st2{fill:none;stroke:#3EBFB8;stroke-width:5;stroke-linecap:round;stroke-miterlimit:10;}
	.st3{fill:none;stroke:#3EBFB8;stroke-width:5;stroke-linecap:round;stroke-linejoin:round;stroke-miterlimit:10;}
	.st4{fill:#3EBFB8;}
	.st5{fill:#FFFFFF;}
</style>
<g id="Layer_1">
	<g>
		<rect x="18.7" y="22.6" class="st3" width="26.1" height="86.5"/>
		<rect x="24.1" y="3" class="st3" width="16.2" height="19.7"/>
		<g>
			<path class="st4" d="M9,68.3c-1.3,0-2.4-1.1-2.4-2.4V22.6c0-1.3,1.1-2.4,2.4-2.4h15.1c1.3,0,2.4,1.1,2.4,2.4s-1.1,2.4-2.4,2.4
				H11.4v40.8C11.4,67.3,10.3,68.3,9,68.3z"/>
		</g>
		<polygon class="st3" points="21.9,109.2 26.5,131.8 37.6,131.8 41.3,109.2 		"/>
		<line class="st3" x1="31.8" y1="131.8" x2="31.8" y2="139"/>
	</g>
	<line class="st3" x1="18.7" y1="34" x2="44.8" y2="34"/>
</g>
<g id="Layer_2">
</g>
</svg>
