<?xml version="1.0" encoding="utf-8"?>
<!-- Generator: Adobe Illustrator 19.1.0, SVG Export Plug-In . SVG Version: 6.00 Build 0)  -->
<svg version="1.1" id="Layer_1" xmlns="http://www.w3.org/2000/svg" xmlns:xlink="http://www.w3.org/1999/xlink" x="0px" y="0px"
	 viewBox="-53.7 184.3 110 57.9" style="enable-background:new -53.7 184.3 110 57.9;" xml:space="preserve">
<style type="text/css">
	.st0{fill:#221F1F;}
	.st1{fill:#F79420;}
	.st2{fill:#098BCB;}
	.st3{fill:#95BB3D;}
	.st4{fill:#EB2027;}
</style>
<g>
	<path class="st0" d="M-53.6,214.1h2v10.2h-2V214.1z M-40.8,224.3l-4.1-6.3v6.3h-2v-10.2h1.8l4.1,6.3v-6.3h2v10.2H-40.8z
		 M-30.4,215.9v8.5h-2v-8.5h-2.7v-1.8h7.3v1.8H-30.4z M-23.7,224.3v-10.2h6.7v1.8h-4.7v2.4h4v1.8h-4v2.5h4.7v1.8L-23.7,224.3z
		 M-7.3,224.3l-2-4.1h-1.4v4.1h-2v-10.2h4c2.1,0,3.3,1.4,3.3,3.1c0,1.4-0.9,2.3-1.9,2.7l2.3,4.4L-7.3,224.3L-7.3,224.3z M-8.8,215.9
		h-1.9v2.7h1.9c0.9,0,1.5-0.6,1.5-1.4C-7.4,216.5-7.9,215.9-8.8,215.9"/>
	<path class="st0" d="M6.3,224.3v-6l-2,3.9H3l-2-3.9v6h-2v-10.2h2l2.7,5.5l2.7-5.5h2v10.2L6.3,224.3z M13.1,224.3v-10.2h6.7v1.8
		h-4.7v2.4h4v1.8h-4v2.5h4.7v1.8L13.1,224.3z M30.5,223.4c-0.7,0.7-1.6,1-2.7,1h-3.7v-10.2h3.7c1.1,0,2,0.3,2.7,1
		c1.1,1.2,1,2.6,1,4.1C31.6,220.7,31.7,222.2,30.5,223.4 M29.1,216.5c-0.3-0.4-0.8-0.6-1.5-0.6h-1.5v6.7h1.5c0.7,0,1.2-0.2,1.5-0.6
		c0.4-0.5,0.4-1.2,0.4-2.7C29.6,217.6,29.5,217,29.1,216.5"/>
	<path class="st0" d="M36,214.1h2v10.2h-2L36,214.1z M48.5,224.3l-0.6-1.8h-3.6l-0.6,1.8h-2.1l3.7-10.2h1.6l3.7,10.2H48.5
		L48.5,224.3z M46.1,217.1l-1.3,3.7h2.5L46.1,217.1L46.1,217.1z"/>
	<path class="st1" d="M-12.5,184.3h7.6V204h-7.6L-12.5,184.3z"/>
	<path class="st2" d="M-53.6,184.3h7.6V204h-7.6V184.3z"/>
	<path class="st3" d="M-39.9,184.3h7.6V204h-7.6V184.3z"/>
	<path class="st4" d="M-26.2,184.3h7.6V204h-7.6L-26.2,184.3z"/>
	<path class="st0" d="M-50.9,235.3v6.9h-0.6v-6.9h-2.2v-0.5h5v0.5L-50.9,235.3L-50.9,235.3z M-43.1,242.2v-3.1c0-1-0.5-1.5-1.4-1.5
		c-0.9,0-1.4,0.5-1.4,1.5v3.1h-0.5v-7.4h0.5v3c0.4-0.4,0.9-0.7,1.5-0.7c1.2,0,1.9,0.7,1.9,1.9v3.2L-43.1,242.2L-43.1,242.2z
		 M-39.5,239.8c0,1.3,0.6,2,1.6,2c0.6,0,1-0.2,1.4-0.6l0.4,0.3c-0.5,0.5-1,0.8-1.8,0.8c-1.4,0-2.1-0.9-2.1-2.6c0-1.6,0.7-2.6,2-2.6
		c1.3,0,2,0.9,2,2.4v0.2L-39.5,239.8L-39.5,239.8z M-36.8,238.5c-0.2-0.5-0.7-0.8-1.3-0.8c-0.6,0-1.1,0.3-1.3,0.8
		c-0.1,0.3-0.1,0.5-0.2,0.9h3C-36.6,238.9-36.6,238.8-36.8,238.5L-36.8,238.5z M-27,242.2h-2.8v-7.4h2.7c1.2,0,2.1,0.7,2.1,1.9
		c0,0.8-0.4,1.4-1.2,1.7c0.8,0.3,1.3,0.9,1.3,1.8C-24.8,241.5-25.7,242.2-27,242.2L-27,242.2z M-27.1,235.3h-2.1v2.9h2.1
		c0.9,0,1.6-0.4,1.6-1.4C-25.5,235.7-26.2,235.3-27.1,235.3z M-27,238.7h-2.2v3h2.2c1,0,1.7-0.6,1.7-1.5
		C-25.4,239.2-26,238.7-27,238.7L-27,238.7z M-18.8,242.2v-0.6c-0.4,0.4-0.9,0.7-1.5,0.7c-0.6,0-1-0.2-1.3-0.5
		c-0.3-0.3-0.5-0.8-0.5-1.4v-3.2h0.5v3.1c0,1,0.5,1.5,1.4,1.5c0.9,0,1.4-0.5,1.4-1.5v-3.1h0.5v5L-18.8,242.2L-18.8,242.2z
		 M-13.8,242.3c-0.9,0-1.5-0.2-2-0.7l0.4-0.4c0.4,0.4,0.9,0.6,1.6,0.6c1,0,1.5-0.3,1.5-1c0-0.5-0.3-0.8-1-0.8l-0.8-0.1
		c-1-0.1-1.5-0.5-1.5-1.3c0-0.9,0.7-1.4,1.8-1.4c0.7,0,1.3,0.2,1.8,0.5l-0.4,0.4c-0.4-0.3-0.9-0.4-1.4-0.4c-0.8,0-1.3,0.3-1.3,1
		c0,0.5,0.3,0.8,1,0.8l0.8,0.1c0.8,0.1,1.5,0.3,1.5,1.3C-11.8,241.7-12.6,242.3-13.8,242.3L-13.8,242.3z M-9.4,235.5v-0.7h0.7v0.7
		L-9.4,235.5L-9.4,235.5z M-9.3,242.2v-5h0.5v5H-9.3z M-2.6,242.2v-3.1c0-1-0.5-1.5-1.4-1.5s-1.4,0.5-1.4,1.5v3.1h-0.5v-5h0.5v0.6
		c0.4-0.4,0.9-0.7,1.5-0.7c0.6,0,1,0.2,1.3,0.5c0.3,0.3,0.5,0.8,0.5,1.4v3.2L-2.6,242.2L-2.6,242.2z M1,239.8c0,1.3,0.6,2,1.6,2
		c0.6,0,1-0.2,1.4-0.6l0.4,0.3c-0.5,0.5-1,0.8-1.8,0.8c-1.4,0-2.1-0.9-2.1-2.6c0-1.6,0.7-2.6,2-2.6s2,0.9,2,2.4v0.2L1,239.8L1,239.8
		z M3.8,238.5c-0.2-0.5-0.7-0.8-1.3-0.8s-1.1,0.3-1.3,0.8c-0.1,0.3-0.1,0.5-0.2,0.9h3C3.9,238.9,3.9,238.8,3.8,238.5L3.8,238.5z
		 M8.6,242.3c-0.9,0-1.5-0.2-2-0.7l0.4-0.4c0.4,0.4,0.9,0.6,1.6,0.6c1,0,1.5-0.3,1.5-1c0-0.5-0.3-0.8-1-0.8l-0.8-0.1
		c-1-0.1-1.5-0.5-1.5-1.3c0-0.9,0.7-1.4,1.8-1.4c0.7,0,1.3,0.2,1.8,0.5L10,238c-0.4-0.3-0.9-0.4-1.4-0.4c-0.8,0-1.3,0.3-1.3,1
		c0,0.5,0.3,0.8,1,0.8l0.8,0.1c0.8,0.1,1.5,0.3,1.5,1.3C10.6,241.7,9.9,242.3,8.6,242.3L8.6,242.3z M14.6,242.3
		c-0.9,0-1.5-0.2-2-0.7l0.4-0.4c0.4,0.4,0.9,0.6,1.6,0.6c1,0,1.5-0.3,1.5-1c0-0.5-0.3-0.8-1-0.8l-0.8-0.1c-1-0.1-1.5-0.5-1.5-1.3
		c0-0.9,0.7-1.4,1.8-1.4c0.7,0,1.3,0.2,1.8,0.5L16,238c-0.4-0.3-0.9-0.4-1.4-0.4c-0.8,0-1.3,0.3-1.3,1c0,0.5,0.3,0.8,1,0.8l0.8,0.1
		c0.8,0.1,1.5,0.3,1.5,1.3C16.6,241.7,15.8,242.3,14.6,242.3L14.6,242.3z M25,242.3c-0.7,0-1.4-0.3-1.8-0.7
		c-0.7-0.7-0.7-1.3-0.7-3.1c0-1.8,0.1-2.4,0.7-3.1c0.4-0.4,1.1-0.7,1.8-0.7c1.3,0,2.3,0.8,2.5,2.2H27c-0.2-1-0.9-1.7-1.9-1.7
		c-0.5,0-1,0.2-1.4,0.6c-0.5,0.5-0.6,1.1-0.6,2.7c0,1.6,0,2.2,0.6,2.7c0.4,0.4,0.9,0.6,1.4,0.6c1,0,1.7-0.6,2-1.7h0.6
		C27.3,241.4,26.3,242.3,25,242.3L25,242.3z M31.4,242.2c-0.8,0-1.2-0.5-1.2-1.3v-6.1h0.5v6.1c0,0.6,0.2,0.8,0.8,0.8h0.4v0.5
		L31.4,242.2L31.4,242.2z M37.1,241.7c-0.4,0.4-0.8,0.6-1.4,0.6c-0.6,0-1-0.2-1.4-0.6c-0.5-0.5-0.6-1.3-0.6-2s0.1-1.5,0.6-2
		c0.4-0.4,0.8-0.6,1.4-0.6c0.6,0,1,0.2,1.4,0.6c0.5,0.5,0.6,1.3,0.6,2C37.7,240.4,37.6,241.2,37.1,241.7L37.1,241.7z M36.7,238
		c-0.3-0.3-0.6-0.4-1-0.4c-0.4,0-0.8,0.1-1,0.4c-0.4,0.4-0.4,1.1-0.4,1.7c0,0.6,0,1.3,0.4,1.7c0.3,0.3,0.6,0.4,1,0.4
		c0.4,0,0.8-0.1,1-0.4c0.4-0.4,0.4-1.1,0.4-1.7C37.2,239.1,37.1,238.5,36.7,238L36.7,238z M43.6,242.2v-0.6
		c-0.4,0.4-0.9,0.7-1.5,0.7c-0.6,0-1-0.2-1.3-0.5c-0.3-0.3-0.5-0.8-0.5-1.4v-3.2h0.5v3.1c0,1,0.5,1.5,1.4,1.5s1.4-0.5,1.4-1.5v-3.1
		h0.5v5L43.6,242.2L43.6,242.2z M50.1,242.2v-0.6c-0.4,0.6-0.9,0.7-1.5,0.7c-0.5,0-1-0.2-1.2-0.4c-0.5-0.5-0.6-1.3-0.6-2.1
		s0.1-1.6,0.6-2.1c0.3-0.3,0.7-0.4,1.2-0.4c0.6,0,1,0.1,1.5,0.7v-3h0.5v7.4L50.1,242.2L50.1,242.2z M48.7,237.6
		c-1.2,0-1.4,1.1-1.4,2.1c0,1,0.2,2.1,1.4,2.1c1.2,0,1.4-1.1,1.4-2.1C50.1,238.7,49.9,237.6,48.7,237.6L48.7,237.6z"/>
	<path class="st0" d="M53.4,234.8v2h-0.2v-2h-0.6v-0.2h1.5v0.2C54.1,234.8,53.4,234.8,53.4,234.8z M56.1,236.8v-1.7l-0.6,1.1h-0.2
		l-0.6-1.1v1.7h-0.2v-2.3h0.2l0.7,1.4l0.7-1.4h0.2v2.3H56.1L56.1,236.8z"/>
</g>
</svg>
