<svg xmlns="http://www.w3.org/2000/svg" xmlns:xlink="http://www.w3.org/1999/xlink" viewBox="0 0 710 230">
  <defs>
    <style>
      .cls-1 {
        clip-path: url(#clip-Web_1920_1);
      }

      .cls-2 {
        fill: #fff;
      }
    </style>
    <clipPath id="clip-Web_1920_1">
      <rect width="710" height="230"/>
    </clipPath>
  </defs>
  <g id="Web_1920_1" data-name="Web 1920 – 1" class="cls-1">
    <rect class="cls-2" width="710" height="230"/>
    <g id="Group_17" data-name="Group 17" transform="translate(-265 -215.716)">
      <g id="Group_1" data-name="Group 1" transform="translate(414 228)">
        <path id="Union_1" data-name="Union 1" d="M0,139.385l9-9v-103l-9-9L18.385,0,36.77,18.385,27,28.155v101.46l9.77,9.77L18.385,157.769Z" transform="translate(449 57.716)"/>
        <path id="Union_1-2" data-name="Union 1" d="M0,139.385l9-9v-103l-9-9L18.385,0,36.77,18.385,27,28.155v101.46l9.77,9.77L18.385,157.769Z" transform="translate(486 57.716)"/>
        <path id="Union_1-3" data-name="Union 1" d="M0,139.385l9-9v-103l-9-9L18.385,0,36.77,18.385,27,28.155v101.46l9.77,9.77L18.385,157.769Z" transform="translate(523 57.716)"/>
        <rect id="Rectangle_20" data-name="Rectangle 20" width="13" height="110" transform="translate(537.952 85.892) rotate(45)"/>
      </g>
      <g id="Group_12" data-name="Group 12" transform="translate(109 179)">
        <g id="Group_7" data-name="Group 7" transform="translate(-6)">
          <path id="Union_6" data-name="Union 6" d="M0,139.385l9-9v-103l-9-9L18.385,0,36.77,18.385,27,28.155v101.46l9.77,9.77L18.385,157.769Z" transform="translate(477 106.716)"/>
          <path id="Union_7" data-name="Union 7" d="M0,139.385l9-9v-103l-9-9L18.385,0,36.77,18.385,27,28.155v101.46l9.77,9.77L18.385,157.769Z" transform="translate(514 106.716)"/>
        </g>
        <rect id="Rectangle_51" data-name="Rectangle 51" width="26" height="26" transform="translate(526.385 162.716) rotate(45)"/>
        <rect id="Rectangle_52" data-name="Rectangle 52" width="26" height="26" transform="translate(489.385 162.716) rotate(45)"/>
      </g>
      <g id="Group_14" data-name="Group 14" transform="translate(109 179)">
        <g id="Group_5" data-name="Group 5" transform="translate(11)">
          <g id="Group_3" data-name="Group 3">
            <path id="Union_4" data-name="Union 4" d="M9,124.284v-96.9l-9-9L18.385,0,36.77,18.385,30,25.155v99.129Z" transform="translate(321 106.716)"/>
            <rect id="Rectangle_40" data-name="Rectangle 40" width="47.531" height="26.898" transform="translate(341.049 212.244) rotate(45)"/>
            <g id="Group_2" data-name="Group 2" transform="translate(5)">
              <rect id="Rectangle_36" data-name="Rectangle 36" width="26" height="26" transform="translate(376.385 106.716) rotate(45)"/>
              <path id="Path_3" data-name="Path 3" d="M390.1,129.7s-20.8,80.355-14.6,94.79c7.7,16.555-25.6-7.874-15.6-33.01S390.1,129.7,390.1,129.7Z" transform="translate(-5 -6.1)"/>
              <path id="Path_4" data-name="Path 4" d="M371.3,188.1s6.6-47.1,17.3-56.9-8.2-8.3-8.2-8.3l-3.2,22.8L371.3,178Z"/>
            </g>
          </g>
        </g>
        <rect id="Rectangle_54" data-name="Rectangle 54" width="26" height="26" transform="translate(350.385 162.716) rotate(45)"/>
      </g>
      <g id="Group_15" data-name="Group 15" transform="translate(109 179)">
        <g id="Group_4" data-name="Group 4" transform="translate(-0.029)">
          <rect id="Rectangle_25" data-name="Rectangle 25" width="47.531" height="26.898" transform="translate(279.049 212.244) rotate(45)"/>
          <path id="Union_3" data-name="Union 3" d="M34.2,140.309V45.943L18.1,29.3v94.365H0V26.315L25.346,0l.8.832,0,.015L60.533,36.4,52.3,44.916v95.393Z" transform="translate(261.006 106.5)"/>
        </g>
        <rect id="Rectangle_55" data-name="Rectangle 55" width="26" height="26" transform="translate(268.385 162.716) rotate(45)"/>
      </g>
      <g id="Group_11" data-name="Group 11" transform="translate(109 179)">
        <g id="Group_8" data-name="Group 8" transform="translate(78)">
          <path id="Union_6-2" data-name="Union 6" d="M0,139.385l9-9v-103l-9-9L18.385,0,36.77,18.385,27,28.155v101.46l9.77,9.77L18.385,157.769Z" transform="translate(477 106.716)"/>
          <path id="Union_7-2" data-name="Union 7" d="M0,139.385l9-9v-103l-9-9L18.385,0,36.77,18.385,27,28.155v101.46l9.77,9.77L18.385,157.769Z" transform="translate(514 106.716)"/>
        </g>
        <rect id="Rectangle_57" data-name="Rectangle 57" width="26" height="26" transform="translate(573.385 162.716) rotate(45)"/>
        <rect id="Rectangle_58" data-name="Rectangle 58" width="13" height="75" transform="translate(619.203 115.64) rotate(45)"/>
      </g>
      <g id="Group_10" data-name="Group 10" transform="translate(109 179)">
        <rect id="Rectangle_56" data-name="Rectangle 56" width="26" height="26" transform="translate(694.385 162.716) rotate(45)"/>
        <g id="Group_9" data-name="Group 9" transform="translate(162)">
          <path id="Union_6-3" data-name="Union 6" d="M0,139.385l9-9v-56.1H27v55.331l9.77,9.77L18.385,157.769Zm0-121L18.385,0,36.77,18.385,18.385,36.77Z" transform="translate(477 106.716)"/>
          <path id="Union_7-3" data-name="Union 7" d="M0,139.385l9-9v-103l-9-9L18.385,0,36.77,18.385,27,28.155v101.46l9.77,9.77L18.385,157.769Z" transform="translate(514 106.716)"/>
        </g>
        <rect id="Rectangle_59" data-name="Rectangle 59" width="13" height="63" transform="translate(692.839 139.004) rotate(45)"/>
        <path id="Path_8" data-name="Path 8" d="M648.291,134.1s14.809,11.3,7.109,20.7,10.1,15.8,9.9,0S648.291,134.1,648.291,134.1Z"/>
      </g>
      <g id="Group_13" data-name="Group 13" transform="translate(109 179)">
        <path id="Union_5" data-name="Union 5" d="M9,124.284v-165.9l-8-8L19.385-68,37.769-49.615,30-41.845V124.284Z" transform="translate(410.7 106.716)"/>
        <rect id="Rectangle_43" data-name="Rectangle 43" width="47.531" height="26.898" transform="translate(430.749 212.244) rotate(45)"/>
        <path id="Path_5" data-name="Path 5" d="M461.3,98c0,13.736,23.7-21.3,23.7-21.3H383.3S461.3,84.264,461.3,98Z" transform="translate(-8.3 2)"/>
        <rect id="Rectangle_60" data-name="Rectangle 60" width="47.531" height="26.898" transform="translate(430.749 212.244) rotate(45)"/>
        <rect id="Rectangle_53" data-name="Rectangle 53" width="26" height="26" transform="translate(429.385 162.716) rotate(45)"/>
        <path id="Path_9" data-name="Path 9" d="M375,78.7s9.9,11.4,4.2,17.5,19.1,2.2,7.7-8.1S375,78.7,375,78.7Z" transform="translate(0 1)"/>
      </g>
      <g id="Group_16" data-name="Group 16" transform="translate(109 179)">
        <path id="Union_8" data-name="Union 8" d="M9,124.284v-165.9l-8-8L19.385-68,37.769-49.615,30-41.845V124.284Z" transform="translate(190.7 106.716)"/>
        <rect id="Rectangle_63" data-name="Rectangle 63" width="47.531" height="26.898" transform="translate(210.749 212.244) rotate(45)"/>
        <path id="Path_7" data-name="Path 7" d="M461.3,98c0,13.736,23.7-21.3,23.7-21.3H383.3S461.3,84.264,461.3,98Z" transform="translate(-226.3 49)"/>
        <rect id="Rectangle_64" data-name="Rectangle 64" width="78" height="26" transform="translate(210.085 38.716) rotate(45)"/>
        <path id="Path_10" data-name="Path 10" d="M375,78.7s9.9,11.4,4.2,17.5,19.1,2.2,7.7-8.1S375,78.7,375,78.7Z" transform="translate(-218 48)"/>
      </g>
    </g>
  </g>
</svg>
