<?xml version="1.0" encoding="utf-8"?>
<!-- Generator: Adobe Illustrator 17.0.1, SVG Export Plug-In . SVG Version: 6.00 Build 0)  -->
<!DOCTYPE svg PUBLIC "-//W3C//DTD SVG 1.1//EN" "http://www.w3.org/Graphics/SVG/1.1/DTD/svg11.dtd">
<svg version="1.1" id="Layer_1" xmlns="http://www.w3.org/2000/svg" xmlns:xlink="http://www.w3.org/1999/xlink" x="0px" y="0px"
	 width="273.529px" height="103.588px" viewBox="0 0 273.529 103.588" enable-background="new 0 0 273.529 103.588"
	 xml:space="preserve">
<g>
	<g>
		<g>
			<g>
				<path fill="#000100" d="M102.989,82.969l3.88-1.797c0.369,1.333,1.041,2.352,2.024,3.053c0.98,0.703,2.235,1.051,3.761,1.051
					c1.443,0,2.59-0.402,3.44-1.204c0.853-0.804,1.281-1.882,1.281-3.23c0-1.76-1.462-3.324-4.375-4.699
					c-0.409-0.202-0.722-0.356-0.94-0.45c-3.297-1.609-5.492-3.064-6.589-4.364c-1.098-1.3-1.648-2.891-1.648-4.772
					c0-2.436,0.828-4.411,2.484-5.924c1.654-1.513,3.824-2.269,6.51-2.269c2.204,0,4.051,0.428,5.537,1.276
					c1.482,0.852,2.512,2.076,3.087,3.669l-3.802,1.96c-0.602-0.94-1.258-1.627-1.973-2.062c-0.713-0.438-1.538-0.657-2.463-0.657
					c-1.307,0-2.348,0.343-3.118,1.025c-0.769,0.681-1.152,1.595-1.152,2.735c0,1.8,1.687,3.477,5.066,5.029
					c0.26,0.124,0.463,0.218,0.614,0.287c2.955,1.359,4.988,2.693,6.09,3.993c1.104,1.303,1.656,2.928,1.656,4.874
					c0,2.835-0.894,5.088-2.678,6.754c-1.785,1.668-4.197,2.504-7.233,2.504c-2.549,0-4.637-0.587-6.264-1.756
					C104.558,86.822,103.491,85.148,102.989,82.969z"/>
			</g>
			<g>
				<path fill="#000100" d="M141.039,63.167v25.789h-4.86V63.167h-7.949V59.04h20.72v4.127H141.039z"/>
			</g>
			<g>
				<path fill="#000100" d="M156.331,59.04h4.802v18.163c0,2.701,0.622,4.727,1.871,6.08c1.246,1.357,3.109,2.034,5.587,2.034
					c2.467,0,4.322-0.677,5.569-2.034c1.247-1.354,1.87-3.38,1.87-6.08V59.04h4.863v18.615c0,4.048-1.021,7.073-3.065,9.085
					c-2.044,2.007-5.123,3.014-9.238,3.014c-4.116,0-7.186-1.004-9.214-3.006c-2.031-2.002-3.046-5.029-3.046-9.094V59.04z"/>
			</g>
			<g>
				<path fill="#000100" d="M191.3,88.956V59.04h6.557c4.266,0,7.266,0.216,9.005,0.642c1.734,0.429,3.259,1.149,4.567,2.156
					c1.728,1.321,3.041,3.016,3.933,5.089c0.892,2.071,1.337,4.435,1.337,7.091c0,2.655-0.445,5.01-1.337,7.06
					c-0.892,2.05-2.205,3.744-3.933,5.078c-1.308,1.008-2.796,1.727-4.467,2.155c-1.668,0.432-4.267,0.646-7.793,0.646h-1.312H191.3
					z M196.162,84.562h4.09c2.245,0,3.933-0.151,5.058-0.449c1.12-0.304,2.099-0.802,2.93-1.51c1.129-0.967,1.977-2.172,2.546-3.609
					c0.563-1.439,0.848-3.111,0.848-5.013c0-1.911-0.284-3.583-0.848-5.019c-0.569-1.437-1.417-2.638-2.546-3.608
					c-0.848-0.708-1.857-1.211-3.035-1.511c-1.181-0.299-3.021-0.449-5.527-0.449h-1.756h-1.76V84.562z"/>
			</g>
			<g>
				<path fill="#000100" d="M225.259,88.956V59.04h4.865v29.916H225.259z"/>
			</g>
			<g>
				<path fill="#000100" d="M261.024,88.956l-3.393-7.704h-11.853l-3.475,7.704h-5.11l14.491-31.102l14.468,31.102H261.024z
					 M247.578,77.204h8.337l-3.065-6.822c-0.176-0.438-0.359-0.936-0.549-1.502c-0.194-0.566-0.383-1.196-0.574-1.892
					c-0.162,0.655-0.337,1.264-0.522,1.827c-0.183,0.569-0.371,1.089-0.563,1.567L247.578,77.204z"/>
			</g>
		</g>
		<g>
			<g>
				<path fill="#000100" d="M126.638,25.528c-1.376-1.173-2.831-2.052-4.365-2.635c-1.532-0.586-3.142-0.879-4.831-0.879
					c-3.271,0-5.93,1.048-7.98,3.145c-2.051,2.1-3.075,4.818-3.075,8.154c0,3.228,0.997,5.894,2.994,7.992
					c1.993,2.097,4.513,3.146,7.549,3.146c1.771,0,3.458-0.314,5.057-0.94c1.604-0.626,3.139-1.575,4.61-2.839v5.494
					c-1.308,0.939-2.732,1.641-4.272,2.104c-1.541,0.463-3.206,0.697-5.003,0.697c-2.292,0-4.407-0.375-6.347-1.127
					c-1.942-0.745-3.648-1.851-5.121-3.306c-1.458-1.432-2.578-3.118-3.359-5.061c-0.784-1.938-1.176-4.007-1.176-6.2
					c0-2.195,0.392-4.255,1.176-6.184c0.781-1.925,1.918-3.618,3.4-5.075c1.485-1.473,3.19-2.587,5.111-3.342
					c1.92-0.757,3.997-1.134,6.234-1.134c1.756,0,3.431,0.256,5.025,0.766c1.593,0.51,3.139,1.283,4.641,2.317L126.638,25.528z"/>
			</g>
			<g>
				<path fill="#000100" d="M136.509,48.169V18.253h4.866v25.564h10.872v4.352H136.509z"/>
			</g>
			<g>
				<path fill="#000100" d="M196.306,49.333l-13.345-31.08h5.05l6.703,15.939c0.395,0.925,0.722,1.78,0.98,2.565
					c0.258,0.782,0.463,1.529,0.612,2.237c0.179-0.749,0.403-1.528,0.674-2.33c0.27-0.806,0.592-1.63,0.961-2.473l6.682-15.939
					h5.028L196.306,49.333z"/>
			</g>
			<g>
				<path fill="#000100" d="M247.833,34.785v13.384h-4.555V18.253h6.783c1.99,0,3.531,0.131,4.629,0.389
					c1.094,0.259,2.034,0.687,2.81,1.286c0.925,0.722,1.643,1.655,2.144,2.799c0.506,1.145,0.757,2.4,0.757,3.76
					c0,2.397-0.577,4.275-1.737,5.629c-1.159,1.357-2.868,2.171-5.128,2.447l10.299,13.606h-5.496l-9.952-13.384H247.833z
					 M248.142,31.003h0.877c2.573,0,4.285-0.299,5.128-0.898c0.846-0.599,1.267-1.662,1.267-3.188c0-1.65-0.451-2.812-1.359-3.486
					c-0.904-0.674-2.584-1.009-5.036-1.009h-0.877V31.003z"/>
			</g>
			<g>
				<g>
					<rect x="216.743" y="18.66" fill="#000100" width="16.694" height="4.073"/>
				</g>
				<g>
					<rect x="216.743" y="30.215" fill="#000100" width="16.694" height="4.071"/>
				</g>
				<g>
					<rect x="216.743" y="44.18" fill="#000100" width="16.694" height="4.07"/>
				</g>
			</g>
			<g>
				<g>
					<rect x="159.815" y="18.66" fill="#000100" width="16.694" height="4.073"/>
				</g>
				<g>
					<rect x="159.815" y="30.215" fill="#000100" width="16.694" height="4.071"/>
				</g>
				<g>
					<rect x="159.815" y="44.18" fill="#000100" width="16.694" height="4.07"/>
				</g>
			</g>
		</g>
	</g>
	<g>
		
			<rect x="15.563" y="59.322" transform="matrix(0.7071 -0.7071 0.7071 0.7071 -42.7618 41.3524)" fill="#A8204A" width="25.951" height="25.951"/>
		<polygon fill="#A8204A" points="28.538,53.948 10.188,72.297 10.188,35.596 		"/>
		<g>
			<polygon fill="#26A688" points="46.889,78.401 59.387,90.895 34.39,90.895 			"/>
			<path fill="#000100" d="M60.836,91.497H32.939l13.951-13.946L60.836,91.497z M35.842,90.295h22.093L46.889,79.25L35.842,90.295z"
				/>
		</g>
		<polygon fill="#A8204A" points="46.889,35.596 28.538,53.948 28.538,17.247 		"/>
		<polygon fill="#A8204A" points="46.889,35.596 65.239,17.247 65.239,53.948 		"/>
		<polygon fill="#A8204A" points="65.239,53.948 83.589,35.596 83.589,72.297 		"/>
		
			<rect x="33.914" y="40.972" transform="matrix(0.7071 -0.7071 0.7071 0.7071 -24.4133 48.9558)" fill="#BD5D71" width="25.951" height="25.951"/>
		
			<rect x="52.264" y="59.322" transform="matrix(0.7071 -0.7071 0.7071 0.7071 -32.0137 67.3058)" fill="#A8204A" width="25.951" height="25.951"/>
		<path fill="#000100" d="M84.19,72.547V34.145L65.84,52.497V15.795L46.889,34.746l0,0l0,0L27.937,15.795v36.702L9.587,34.145v38.35
			l18.952,19.002l18.351-18.35l0,0l0,0l18.35,18.35L84.19,72.547z M82.988,37.046v33.801L66.089,53.948L82.988,37.046z
			 M46.889,71.447l-8.752-8.75l-8.75-8.75L40.424,42.91l6.465-6.465l6.464,6.465L64.39,53.948l-8.752,8.75L46.889,71.447z
			 M64.638,18.697v33.8L53.982,41.839l-6.243-6.243L64.638,18.697z M46.039,35.596l-6.243,6.243L29.139,52.497v-33.8L46.039,35.596z
			 M10.788,37.046l16.9,16.901l-16.9,16.899V37.046z M28.538,89.797l-17.501-17.5l17.501-17.501l8.75,8.751l8.75,8.75L28.538,89.797
			z M65.239,89.797l-17.501-17.5l8.75-8.75l8.75-8.751l17.5,17.501L65.239,89.797z"/>
	</g>
</g>
</svg>
