<?xml version="1.0" standalone="no"?>
<!DOCTYPE svg PUBLIC "-//W3C//DTD SVG 20010904//EN"
 "http://www.w3.org/TR/2001/REC-SVG-20010904/DTD/svg10.dtd">
<svg version="1.0" xmlns="http://www.w3.org/2000/svg"
 width="1280.000000pt" height="1280.000000pt" viewBox="0 0 1280.000000 1280.000000"
 preserveAspectRatio="xMidYMid meet">
<metadata>
Created by potrace 1.14, written by Peter Selinger 2001-2017
</metadata>
<g transform="translate(0.000000,1280.000000) scale(0.100000,-0.100000)"
fill="#000000" stroke="none">
<path d="M6025 11903 c-243 -21 -449 -55 -655 -110 -127 -33 -388 -119 -455
-148 -16 -8 -82 -37 -145 -65 -887 -395 -1696 -1181 -2150 -2089 -201 -402
-294 -743 -275 -1013 12 -167 11 -229 -5 -483 -11 -186 -11 -259 -2 -380 14
-179 27 -230 97 -395 73 -171 170 -443 185 -514 11 -55 10 -61 -15 -118 -26
-59 -32 -112 -21 -193 15 -105 29 -348 30 -515 l1 -195 -69 -200 c-62 -182
-69 -208 -70 -285 l-1 -85 85 -85 c104 -104 275 -298 318 -362 17 -25 48 -56
68 -68 51 -32 110 -23 279 44 77 31 145 54 152 51 7 -2 25 -30 41 -62 54 -107
84 -238 106 -468 9 -88 18 -181 21 -207 3 -25 1 -78 -5 -116 -15 -93 2 -214
40 -303 26 -59 30 -83 41 -245 10 -168 8 -632 -4 -699 -25 -138 -24 -200 8
-311 29 -101 68 -164 107 -175 15 -4 75 -40 135 -80 358 -243 359 -244 424
-230 28 6 53 11 57 11 4 0 7 -21 8 -48 0 -26 6 -63 13 -83 11 -33 20 -40 107
-80 58 -26 130 -69 180 -108 131 -102 174 -130 208 -139 32 -8 44 -26 81 -119
12 -29 27 -45 49 -54 17 -8 150 -131 296 -275 146 -144 275 -266 287 -273 27
-14 131 -14 209 0 44 8 89 29 178 82 l119 72 213 3 c242 4 225 8 380 -93 69
-45 94 -55 157 -65 41 -7 105 -11 141 -8 l67 4 212 210 c251 249 336 328 374
346 25 12 28 19 31 70 3 67 25 91 90 102 38 6 62 21 222 145 46 36 74 51 97
51 57 0 167 140 188 237 6 29 9 32 27 22 11 -6 42 -12 68 -13 44 -1 57 6 267
146 121 81 236 154 256 163 46 19 80 64 106 141 37 112 40 163 19 343 -16 141
-18 206 -13 431 7 334 20 474 44 514 11 17 27 63 36 103 17 68 17 134 2 267
-1 16 3 79 10 140 7 61 17 157 23 214 20 192 91 419 138 437 8 3 49 -9 91 -26
132 -55 240 -89 283 -89 37 0 46 6 92 53 28 30 92 102 141 161 50 60 137 156
195 215 l105 106 -1 85 c-2 77 -8 104 -70 285 l-69 200 1 195 c1 164 29 608
39 618 3 3 -14 51 -46 128 -10 26 -9 42 5 99 22 89 90 275 170 468 83 199 94
240 108 426 9 125 9 199 -2 385 -8 127 -14 263 -12 301 9 318 6 390 -16 495
-96 437 -330 911 -685 1385 -363 484 -850 918 -1357 1210 -498 287 -1030 458
-1575 504 -110 10 -515 12 -610 4z m85 -44 c-194 -119 -320 -366 -320 -627 0
-99 17 -171 54 -238 l26 -46 -54 -62 c-174 -199 -296 -499 -366 -901 -27 -152
-37 -408 -21 -530 57 -437 284 -801 584 -940 l77 -36 0 -347 c0 -219 -4 -361
-11 -386 -10 -36 -9 -41 12 -56 20 -16 21 -21 10 -50 -7 -21 -11 -115 -11
-257 l0 -224 -57 -117 c-32 -64 -74 -148 -95 -186 -46 -83 -46 -82 75 -146
160 -84 191 -103 235 -144 17 -16 32 -36 32 -43 0 -7 11 -13 25 -13 14 0 25 4
25 8 0 44 259 202 332 202 24 0 108 -55 164 -108 30 -29 153 -282 224 -462 33
-85 70 -168 81 -185 11 -16 41 -66 67 -110 46 -79 50 -82 192 -178 80 -53 161
-104 180 -113 67 -29 296 -102 409 -130 63 -16 141 -42 175 -59 56 -27 64 -35
93 -95 17 -36 34 -76 38 -90 l6 -25 -158 4 c-167 3 -260 -7 -348 -40 l-50 -19
25 20 25 20 -44 -15 c-62 -21 -102 -48 -152 -102 -50 -54 -98 -138 -86 -150 5
-4 26 3 48 15 l39 23 0 -25 c0 -16 -16 -39 -51 -70 -62 -56 -94 -95 -84 -104
4 -4 33 22 65 57 62 69 80 72 80 14 0 -26 -9 -45 -34 -73 -23 -26 -38 -55 -45
-91 -7 -32 -45 -114 -91 -200 l-80 -146 -1 -82 c-1 -69 4 -92 30 -155 29 -71
40 -136 23 -136 -20 0 -32 28 -32 71 0 31 -6 55 -19 70 -18 22 -22 23 -53 11
-19 -6 -38 -12 -42 -12 -18 0 5 78 44 150 22 41 40 83 40 93 0 33 -24 13 -50
-40 -14 -28 -32 -60 -41 -70 -40 -44 -42 -59 -19 -163 12 -54 20 -113 18 -132
-7 -74 -64 -11 -75 84 -3 29 -11 56 -17 60 -18 12 -44 9 -60 -8 -15 -14 -17
-14 -22 0 -7 20 -2 42 27 121 16 43 20 70 15 96 -7 41 -46 89 -71 89 -14 0
-13 -4 4 -26 33 -41 36 -85 12 -163 -22 -73 -22 -97 4 -185 16 -55 20 -106 7
-106 -15 0 -52 100 -52 141 0 34 -6 47 -35 76 l-36 36 -25 -24 c-56 -52 -64
-71 -54 -130 8 -45 6 -64 -12 -117 -12 -34 -27 -62 -34 -62 -26 0 -44 66 -44
160 0 88 -1 93 -29 121 -36 35 -77 38 -117 7 -48 -37 -55 -50 -38 -75 18 -29
18 -133 0 -178 -17 -41 -52 -47 -81 -15 -16 18 -17 33 -12 137 8 131 0 159
-46 181 -22 11 -31 10 -56 -2 -39 -21 -46 -43 -46 -153 0 -107 -13 -134 -46
-94 -16 20 -19 39 -19 136 0 122 -6 139 -55 151 -27 7 -104 -26 -126 -53 -9
-11 -14 -49 -14 -122 0 -91 -3 -113 -23 -153 -13 -26 -29 -45 -35 -42 -21 8
-57 73 -57 102 0 24 10 70 36 159 5 18 -1 24 -41 42 -60 26 -59 26 -90 -6 -46
-49 -55 -75 -53 -160 3 -90 -6 -126 -30 -121 -13 3 -18 18 -22 73 -7 98 -44
151 -110 160 -28 3 -39 -2 -67 -31 -18 -20 -33 -43 -34 -52 0 -9 -3 -12 -5 -6
-3 6 12 47 33 90 36 76 38 83 38 186 1 60 -3 108 -7 108 -10 0 -15 -28 -23
-110 -4 -42 -19 -96 -44 -154 -32 -75 -37 -95 -30 -125 10 -44 6 -48 -25 -27
-33 21 -49 20 -71 -4 -55 -61 -75 31 -29 130 14 30 34 76 45 103 l19 47 -30
63 c-16 34 -32 78 -35 98 -6 39 -29 78 -40 67 -4 -3 3 -44 15 -90 34 -127 34
-127 1 -211 -20 -50 -31 -95 -31 -127 0 -38 -4 -50 -15 -50 -10 0 -15 10 -16
28 0 15 -2 35 -4 46 -2 10 0 29 5 42 8 20 5 24 -23 35 -33 12 -33 12 -30 73 2
33 8 105 13 159 6 54 10 104 10 112 0 26 -20 16 -42 -21 l-21 -36 -24 38 c-48
77 -100 190 -106 229 -4 21 -16 52 -28 68 -19 26 -21 38 -15 126 3 53 5 99 6
103 0 4 11 2 25 -4 62 -28 41 39 -36 113 -67 66 -183 127 -290 153 -139 34
-335 30 -519 -10 -257 -55 -262 -56 -286 -43 -18 9 -39 9 -101 -1 -65 -10
-344 -76 -405 -96 -27 -8 -23 34 12 145 21 70 26 98 18 108 -6 7 -14 13 -17
13 -14 0 -43 -76 -70 -180 l-28 -105 -89 -23 c-49 -13 -127 -26 -174 -29 -74
-5 -91 -3 -126 15 -59 30 -204 195 -204 232 0 24 64 132 87 147 26 17 30 33 8
33 -8 0 -24 5 -35 12 -23 14 -18 19 -68 -61 l-40 -63 -32 61 c-18 34 -36 61
-41 61 -5 0 -14 -18 -20 -40 -10 -34 -9 -48 10 -102 13 -39 23 -98 26 -153 6
-105 -1 -104 -61 13 l-37 72 6 103 c8 155 44 268 134 432 21 37 21 78 0 180
-45 217 -59 499 -31 631 15 75 81 232 204 489 176 367 240 560 240 726 0 54 3
63 36 97 l35 37 -16 -33 c-23 -47 -14 -49 20 -4 76 99 268 235 413 291 158 60
276 63 446 11 l68 -21 -20 -22 c-11 -12 -23 -40 -27 -62 -13 -77 -11 -75 -58
-51 -60 30 -266 29 -381 -3 -149 -40 -284 -117 -344 -196 -30 -39 -132 -267
-132 -294 0 -30 23 -1 76 97 64 117 120 185 194 232 139 89 379 136 471 92 44
-21 134 -117 119 -127 -6 -4 -32 7 -59 24 -54 35 -110 41 -132 15 -12 -15 -7
-23 44 -69 l58 -53 -28 -19 c-72 -49 -262 -150 -340 -180 -60 -22 -77 -24
-150 -19 -74 5 -83 4 -83 -11 0 -9 9 -26 20 -38 l21 -22 -32 -69 c-133 -294
-239 -618 -239 -731 0 -30 -7 -53 -21 -71 -19 -24 -20 -35 -14 -97 4 -38 15
-115 25 -170 10 -55 22 -138 26 -185 l7 -85 69 -78 c38 -43 74 -89 80 -102 14
-31 92 -65 269 -117 94 -27 173 -44 228 -47 l84 -6 14 -39 c7 -22 16 -76 19
-120 8 -104 16 -120 39 -77 13 26 15 46 10 91 -5 41 -2 75 9 113 l16 54 67 6
c38 4 92 7 121 7 29 0 106 13 170 30 154 38 285 54 403 47 95 -6 96 -6 107 18
6 14 39 45 73 70 49 36 66 44 88 38 26 -6 131 -50 139 -58 6 -6 -21 -29 -154
-130 -107 -80 -131 -106 -118 -126 12 -20 44 -5 171 81 73 49 141 90 150 90
13 0 15 -7 9 -47 -13 -84 -12 -97 6 -101 27 -5 52 54 54 128 1 65 2 65 30 65
28 0 29 -2 29 -50 0 -73 22 -70 62 7 34 66 119 162 134 152 5 -3 9 -34 9 -70
0 -49 3 -64 14 -64 22 0 25 9 36 107 13 120 78 340 138 471 l26 57 12 -54 c12
-54 33 -81 45 -58 3 7 9 57 13 112 6 93 29 231 41 243 2 3 14 -7 26 -21 11
-15 27 -27 35 -27 16 0 14 21 -11 117 -9 35 -13 76 -9 108 6 49 3 59 -50 161
-78 154 -129 228 -216 316 -82 84 -123 104 -147 73 -17 -25 -17 -60 2 -75 25
-21 105 -149 137 -218 67 -151 78 -311 34 -485 -26 -103 -89 -246 -148 -338
-43 -67 -119 -149 -138 -149 -8 0 -25 -25 -38 -54 -13 -30 -49 -84 -79 -122
l-56 -67 -19 22 c-39 50 -13 114 72 171 39 27 67 54 74 72 9 25 15 29 38 24
21 -4 28 -2 28 10 0 8 22 38 50 67 27 28 63 77 79 107 26 49 87 213 96 259 2
9 10 51 19 93 24 118 21 191 -14 299 -33 100 -41 115 -137 261 -52 78 -64 103
-61 130 l3 33 115 6 c63 4 127 12 143 19 25 12 27 17 21 49 -12 64 -23 84 -42
76 -40 -17 -205 -55 -317 -74 -186 -31 -299 -41 -437 -40 l-128 2 -1 26 c-1
14 -1 32 0 40 2 7 -2 10 -8 6 -6 -3 -11 -1 -11 5 0 6 -4 8 -10 5 -5 -3 -10 -1
-10 5 0 6 -4 8 -10 5 -5 -3 -10 0 -10 7 0 9 -3 9 -10 -2 -9 -13 -10 -13 -10 0
0 13 -1 13 -10 0 -8 -12 -10 -10 -10 10 0 20 -2 22 -10 10 -9 -13 -10 -13 -10
0 0 13 -1 13 -10 0 -8 -12 -10 -12 -11 5 l0 20 -8 -20 c-8 -19 -9 -18 -12 4
-5 30 -26 39 -32 14 -3 -13 -5 -11 -7 7 -1 23 -2 23 -10 5 -8 -18 -9 -18 -10
5 -1 14 -4 19 -7 11 -5 -11 -7 -11 -14 0 -7 11 -9 9 -10 -6 -1 -16 -2 -15 -8
5 -4 15 -14 24 -24 24 -9 -1 -15 2 -12 6 3 4 -2 10 -10 14 -8 3 -19 -3 -25
-12 -10 -15 -11 -14 -7 6 3 12 1 20 -4 16 -5 -3 -9 0 -9 6 0 6 -4 8 -10 5 -5
-3 -10 0 -10 7 0 9 -3 9 -10 -2 -8 -12 -10 -12 -10 5 0 17 -2 17 -10 5 -8 -12
-10 -12 -10 5 0 17 -2 17 -10 5 -8 -12 -10 -12 -10 5 -1 18 -2 18 -10 -2 -12
-29 -20 -29 -13 0 4 18 3 19 -6 7 -9 -13 -11 -12 -11 5 0 17 -2 17 -10 5 -8
-12 -10 -12 -10 5 0 17 -2 17 -10 5 -8 -12 -10 -12 -11 5 l0 20 -9 -20 c-8
-18 -9 -18 -10 5 -1 23 -2 23 -10 5 l-9 -20 -1 20 -1 20 -9 -20 c-8 -18 -9
-18 -10 5 l-2 25 -8 -25 c-8 -25 -8 -25 -10 5 -2 30 -2 30 -10 5 -8 -25 -8
-25 -10 5 -1 26 -3 27 -10 10 l-9 -20 0 20 c-1 15 -3 17 -10 7 -16 -26 -19 37
-5 108 15 81 43 148 72 173 20 18 23 17 135 -27 63 -24 274 -113 468 -197 442
-190 503 -212 593 -213 66 -1 71 1 85 26 20 35 12 42 -32 23 -80 -33 -111 -22
-527 182 -277 136 -518 245 -602 272 l-38 12 70 61 c95 81 147 171 115 198
-10 9 -16 1 -29 -38 -26 -77 -68 -125 -143 -165 l-68 -35 -115 30 c-91 24
-144 31 -257 35 l-142 6 -17 51 c-17 52 -39 85 -49 74 -4 -3 0 -19 8 -35 20
-37 37 -103 28 -103 -4 0 -13 22 -20 49 -14 54 -38 94 -51 86 -5 -3 -1 -20 10
-38 10 -18 21 -50 24 -72 l6 -40 -13 40 c-19 56 -46 105 -57 105 -14 0 -13 -5
9 -48 23 -46 37 -107 23 -98 -6 3 -13 23 -17 44 -7 43 -39 102 -55 102 -14 0
-13 -7 6 -35 20 -30 45 -125 33 -125 -5 0 -9 8 -9 18 0 25 -28 103 -45 126
-26 35 -34 7 -10 -37 13 -23 27 -62 30 -87 l5 -45 -15 53 c-17 59 -30 89 -53
114 -23 27 -35 10 -12 -19 11 -14 27 -48 35 -76 25 -83 16 -88 -11 -7 -23 68
-56 121 -68 109 -3 -2 8 -31 24 -64 16 -33 32 -78 34 -100 l6 -40 -14 45 c-29
99 -68 166 -88 154 -4 -3 0 -17 11 -30 29 -37 73 -183 51 -169 -5 3 -10 15
-10 25 0 31 -41 133 -63 157 -15 17 -23 20 -33 12 -17 -14 -23 1 -53 123 -13
51 -21 109 -19 140 3 53 3 53 35 52 l33 -2 -19 27 c-39 55 -54 136 -48 261 4
63 13 144 22 180 9 36 18 72 20 80 2 8 15 53 30 100 197 620 680 1269 1345
1806 228 185 631 442 853 546 37 17 67 35 67 39 0 4 -42 -6 -92 -21 -582 -177
-1158 -489 -1655 -897 -148 -121 -184 -153 -327 -298 -448 -451 -726 -895
-901 -1439 -46 -140 -98 -373 -111 -494 -5 -51 -9 -60 -20 -51 -35 29 -51 181
-35 317 55 452 390 1064 869 1590 290 318 597 585 917 797 394 262 754 429
1195 555 179 52 500 105 650 109 l55 1 -35 -21z m575 6 c416 -48 808 -170
1227 -380 213 -107 371 -203 618 -376 192 -134 491 -400 689 -612 318 -341
550 -666 723 -1012 169 -337 247 -638 220 -847 -7 -57 -17 -97 -28 -109 -22
-24 -12 -49 17 -42 19 5 20 4 9 -16 -9 -18 -8 -41 6 -114 13 -70 18 -142 17
-302 0 -511 -114 -1016 -262 -1160 -24 -23 -41 -33 -41 -25 0 8 18 64 40 123
22 59 58 174 80 255 208 755 169 1449 -119 2117 -429 994 -1454 1879 -2646
2285 -77 26 -156 51 -175 55 -32 6 -33 6 -15 -7 11 -8 72 -42 136 -76 351
-184 716 -443 1031 -730 572 -520 1009 -1206 1121 -1758 40 -199 32 -357 -23
-434 l-20 -28 33 2 c32 1 32 0 35 -49 2 -30 -7 -91 -23 -156 -15 -58 -25 -119
-23 -135 l3 -28 52 46 c163 145 359 229 429 184 54 -36 66 -113 38 -239 -29
-125 -98 -234 -143 -225 -43 9 26 208 90 262 20 17 25 26 16 35 -16 16 -33 14
-75 -13 -57 -36 -107 -97 -145 -178 -35 -74 -67 -183 -67 -229 0 -14 -3 -29
-6 -32 -4 -3 -34 19 -68 49 -143 131 -335 244 -471 279 -84 21 -233 19 -362
-6 -235 -45 -430 -123 -923 -369 -237 -118 -385 -180 -429 -180 -18 0 -48 7
-68 15 -44 19 -47 19 -39 -1 3 -8 2 -12 -4 -9 -10 6 -14 45 -5 45 3 0 16 -7
30 -16 62 -40 122 -19 556 194 167 82 349 169 404 192 391 166 681 209 893
131 46 -16 104 -42 129 -56 41 -23 34 -13 -70 94 -64 66 -118 130 -121 143
-13 64 -15 111 -6 127 12 24 73 48 142 57 29 4 56 12 60 18 12 18 9 88 -7 149
-18 71 -61 158 -130 262 -77 117 -86 125 -148 125 -60 0 -182 -28 -280 -63
-47 -17 -69 -21 -72 -14 -32 107 -51 162 -72 212 -40 96 -153 283 -248 410
-200 269 -621 690 -974 973 -101 81 -370 279 -404 297 -20 11 -35 24 -33 30 3
5 15 41 27 78 18 59 21 84 16 180 -6 139 -23 204 -87 335 -40 81 -65 116 -119
170 -37 38 -84 76 -104 86 -21 9 -37 19 -37 21 0 9 75 5 205 -10z m-333 -372
c83 -89 90 -247 13 -328 -41 -44 -69 -44 -109 -1 -76 80 -74 235 4 317 44 46
58 48 92 12z m58 -778 c57 -19 150 -91 195 -153 179 -244 270 -722 200 -1057
-65 -310 -206 -554 -367 -634 -50 -25 -73 -31 -128 -31 -153 0 -280 111 -389
340 -115 243 -153 500 -116 787 55 415 217 697 435 757 58 16 97 14 170 -9z
m1003 -709 c354 -393 603 -794 671 -1079 6 -27 4 -29 -101 -79 -381 -178 -858
-421 -1270 -644 -95 -52 -175 -94 -178 -94 -3 0 -5 82 -5 183 l0 184 93 46
c282 142 483 457 556 872 16 89 19 143 16 280 -2 94 -6 179 -8 190 -2 11 -7
45 -11 75 -12 81 -54 285 -71 343 -8 28 -15 53 -15 56 1 9 210 -207 323 -333z
m457 -1271 c0 -6 -267 -136 -480 -235 -69 -31 -172 -83 -230 -115 -58 -32
-159 -87 -225 -123 -66 -36 -169 -99 -230 -141 -153 -106 -165 -113 -165 -98
0 54 545 355 1141 632 197 91 189 88 189 80z m-4903 -205 c123 -43 297 -169
333 -241 29 -56 41 -89 32 -89 -4 0 -15 22 -25 50 -19 53 -63 113 -78 105 -5
-3 5 -24 21 -46 28 -39 47 -92 68 -186 6 -24 7 -43 3 -43 -4 0 -13 29 -20 65
-15 74 -59 171 -90 199 -11 11 -21 14 -21 8 0 -6 -16 -9 -40 -7 -44 4 -50 -3
-21 -29 40 -37 102 -220 100 -296 -1 -14 -10 18 -20 70 -22 107 -57 192 -96
232 -41 42 -46 22 -8 -28 40 -51 80 -171 89 -259 l5 -60 -13 60 c-20 94 -46
175 -71 225 -24 47 -75 102 -75 81 0 -8 -7 -10 -20 -6 -12 4 -20 2 -20 -6 0
-8 -3 -9 -13 0 -25 20 -27 -2 -3 -28 24 -25 76 -120 76 -137 0 -5 -14 15 -31
45 -34 59 -108 138 -151 160 -20 10 -34 11 -50 4 l-22 -10 28 -24 c49 -42 124
-209 111 -249 -27 -84 -144 90 -167 248 -14 96 -5 146 32 184 35 34 76 37 157
8z m-474 -277 c-10 -435 42 -771 188 -1207 33 -98 58 -180 56 -182 -2 -3 -23
16 -47 42 -101 109 -177 349 -226 709 -24 180 -24 177 -30 370 -7 177 1 289
28 413 9 41 9 58 0 73 -11 17 -9 19 12 19 l24 0 -5 -237z m6858 -292 c30 -23
75 -61 100 -86 45 -44 46 -47 48 -110 4 -193 54 -337 278 -808 72 -152 84
-184 79 -212 -6 -30 -4 -36 22 -49 48 -25 57 -89 57 -421 0 -234 -2 -271 -24
-375 -26 -127 -26 -126 35 -225 57 -94 111 -325 102 -433 -6 -60 -47 -156 -88
-202 l-21 -25 6 60 c3 33 17 89 31 124 29 72 29 145 0 166 -9 7 -16 22 -16 34
0 12 -12 34 -27 49 l-28 27 -5 -45 c-6 -45 -25 -90 -38 -90 -4 0 -15 14 -25
31 -17 31 -17 33 3 74 17 35 18 47 9 76 -7 19 -18 40 -25 48 -11 13 -14 12
-20 -2 -3 -10 -4 -27 -1 -38 9 -33 -15 -128 -34 -134 -13 -4 -10 -12 18 -41
18 -19 33 -41 33 -49 0 -7 -14 -23 -32 -36 -71 -53 -100 -87 -96 -116 2 -23 9
-29 37 -33 19 -3 36 -9 38 -15 6 -21 -44 -91 -96 -133 l-54 -44 -81 4 c-48 2
-151 20 -249 43 l-168 40 3 117 c3 103 6 120 24 138 28 28 131 63 297 100 76
16 149 37 162 46 38 25 59 81 61 159 1 63 46 294 62 321 4 6 24 37 46 69 21
32 46 79 55 104 9 25 25 59 36 75 24 36 24 114 1 168 -9 21 -16 52 -16 70 0
37 -19 79 -37 86 -20 6 -15 -47 7 -97 20 -44 28 -147 11 -136 -27 16 -130 441
-186 764 -3 19 -21 51 -39 71 -19 21 -36 53 -40 75 -7 35 -32 75 -116 190 -64
85 -64 88 -61 226 2 118 1 132 -27 215 -17 49 -46 124 -65 167 -40 86 -39 87
54 18z m-560 -117 c12 -15 7 -23 -46 -70 -32 -29 -57 -55 -55 -58 21 -20 309
-171 367 -192 65 -24 81 -26 153 -20 77 7 80 7 80 -14 0 -11 -6 -23 -14 -26
-8 -3 -17 -12 -20 -19 -2 -7 27 -87 65 -177 95 -222 177 -470 195 -591 8 -54
22 -110 31 -123 18 -28 15 -79 -18 -259 -11 -60 -22 -146 -25 -190 l-6 -79
-62 -71 c-34 -38 -73 -85 -85 -103 -28 -39 -50 -52 -172 -92 -250 -82 -315
-90 -524 -65 -66 8 -148 15 -183 15 -36 0 -102 11 -154 25 -134 38 -295 58
-414 52 l-100 -6 -18 31 c-17 28 -189 148 -276 193 -79 41 -174 111 -193 143
-16 27 -24 32 -43 28 -18 -5 -24 -2 -24 9 0 9 -19 35 -43 58 -71 70 -106 136
-156 290 -98 307 -78 467 90 717 74 110 90 148 71 176 -4 7 -52 13 -117 16
-142 7 -195 31 -150 68 10 9 35 11 78 7 l62 -6 -41 15 c-23 8 -52 27 -65 41
-22 23 -22 25 -4 19 57 -22 262 -68 388 -88 208 -32 524 -32 651 0 155 39 330
126 576 287 122 79 172 94 201 59z m-4713 -204 c110 -62 248 -123 379 -165
171 -56 216 -60 520 -48 l268 11 58 -61 c78 -82 162 -210 201 -305 30 -75 31
-81 31 -237 -1 -224 -32 -382 -98 -493 -24 -40 -59 -73 -142 -136 -235 -177
-434 -290 -565 -321 -36 -8 -220 -40 -410 -70 -190 -30 -356 -58 -370 -61 -56
-15 -285 -13 -350 2 -216 51 -382 213 -434 426 -19 77 -39 276 -32 322 3 17 8
65 11 106 7 93 38 228 77 340 61 173 205 430 242 430 11 0 97 51 190 114 155
104 309 195 329 196 4 0 46 -22 95 -50z m2332 -482 c23 -10 18 -14 -84 -64
-126 -61 -129 -53 44 -100 l105 -28 -83 -28 c-46 -15 -97 -36 -115 -45 l-32
-17 65 -19 c87 -25 98 -38 18 -21 -34 7 -78 13 -95 14 -26 0 -33 4 -33 19 0
19 75 56 168 82 23 7 41 13 39 15 -1 1 -54 14 -117 28 -63 14 -126 29 -140 32
-25 6 -5 17 190 106 l35 15 -57 29 c-32 15 -58 31 -58 35 0 6 56 -13 150 -53z
m586 -670 c20 -40 43 -104 51 -142 20 -94 140 -371 200 -458 61 -90 120 -141
208 -182 38 -18 92 -52 120 -74 29 -25 64 -44 85 -48 38 -6 262 -76 258 -80
-2 -1 -48 6 -102 17 -199 40 -353 121 -509 269 l-95 90 -52 132 c-29 73 -65
159 -81 190 -23 45 -129 337 -129 354 0 16 15 -7 46 -68z m2608 -750 c-20 -39
-65 -82 -159 -153 -107 -80 -108 -80 -284 -35 -169 44 -275 54 -335 34 -54
-19 -57 -17 -12 10 57 36 171 34 286 -4 133 -44 201 -56 248 -42 51 15 158 97
218 167 26 30 49 55 51 55 2 0 -4 -15 -13 -32z m-1488 -272 c38 -13 88 -33
112 -45 82 -42 133 -149 131 -272 -1 -35 2 -82 5 -104 5 -36 4 -36 -9 10 -8
28 -17 82 -20 120 -7 98 -19 127 -74 178 -56 52 -100 77 -203 111 -55 19 -66
26 -42 26 17 0 62 -11 100 -24z m-5294 -492 c77 -93 197 -209 227 -219 16 -5
21 -15 21 -41 0 -22 -5 -34 -13 -34 -28 0 -141 80 -233 165 -44 40 -54 65 -79
195 -8 40 -12 43 77 -66z m7045 -11 c-10 -46 -22 -67 -54 -99 -114 -113 -220
-184 -274 -184 -52 0 -149 31 -341 111 -92 38 -172 69 -178 69 -15 0 -12 17 5
23 8 4 86 -22 173 -57 186 -75 311 -116 353 -116 25 0 49 18 132 99 56 55 122
126 147 159 25 33 46 59 48 57 2 -1 -3 -29 -11 -62z m-1017 -162 c52 -15 31
-67 -120 -296 -88 -134 -145 -238 -165 -305 -27 -86 -153 -457 -182 -534 -38
-101 -53 -254 -57 -562 -3 -265 -3 -271 -28 -325 -14 -30 -30 -70 -36 -89 -12
-37 -51 -222 -59 -280 -9 -63 -19 -78 -47 -73 -21 4 -28 14 -38 50 -7 30 -18
47 -32 53 -41 15 -46 4 -46 -102 0 -83 4 -110 25 -161 27 -68 29 -83 25 -142
-2 -39 -3 -39 -15 20 -6 33 -22 92 -34 130 -28 88 -38 220 -19 255 8 14 21 26
31 28 24 5 76 -50 83 -88 10 -48 26 -30 46 51 25 103 76 292 99 369 17 55 21
113 29 380 9 343 15 386 66 535 20 55 49 150 65 210 61 226 143 399 328 694
93 148 94 149 71 161 -10 5 -35 10 -54 10 -20 0 -36 5 -36 10 0 11 62 12 100
1z m-5258 -227 c1 -149 12 -230 42 -313 30 -84 43 -167 56 -361 14 -190 20
-219 71 -326 44 -93 44 -112 -1 -144 -23 -16 -27 -26 -25 -54 2 -18 6 -60 9
-92 3 -33 10 -113 17 -179 6 -66 10 -185 9 -265 -4 -245 -2 -308 12 -333 49
-92 139 -228 169 -258 21 -20 52 -40 70 -44 51 -11 61 10 58 130 -2 130 -2
135 17 135 22 0 15 33 -53 249 -94 301 -96 322 -58 545 30 177 31 281 5 401
-23 108 -86 432 -95 495 -34 221 -19 378 36 395 44 14 88 -47 158 -216 27 -65
36 -78 59 -82 34 -7 38 0 45 78 8 81 31 138 54 133 28 -5 33 -60 24 -248 -12
-243 1 -514 28 -608 53 -182 72 -222 189 -399 29 -46 57 -83 61 -83 4 0 16 -8
27 -18 10 -10 51 -43 89 -73 95 -76 107 -91 116 -147 4 -26 13 -68 20 -93 l12
-44 14 65 c8 36 30 112 50 168 36 103 36 103 52 78 8 -14 26 -26 41 -28 21 -3
27 -11 42 -63 9 -33 17 -79 17 -103 1 -36 4 -43 19 -40 18 4 20 28 7 105 -12
66 2 129 37 168 51 59 61 49 53 -55 l-7 -89 31 -32 c26 -26 38 -30 66 -27 33
4 36 2 44 -31 19 -75 23 -122 11 -136 -9 -11 -8 -19 4 -36 l15 -22 7 27 c8 32
0 131 -17 205 -9 43 -9 70 1 124 10 59 15 68 32 65 16 -2 24 -18 39 -75 17
-67 17 -76 2 -118 -25 -76 6 -156 55 -141 16 6 21 0 27 -36 4 -24 9 -47 10
-53 2 -5 9 -31 16 -57 11 -41 11 -51 -5 -86 -10 -22 -15 -45 -12 -51 14 -22
34 -10 50 29 15 37 15 47 1 113 -20 98 -20 265 1 295 8 12 22 22 30 22 17 0
17 1 -2 -46 -24 -56 -14 -127 21 -164 32 -33 83 -47 113 -31 18 9 20 7 26 -29
3 -22 17 -75 31 -119 16 -48 23 -90 19 -105 -7 -31 4 -55 17 -35 14 23 10 82
-11 174 -12 47 -20 107 -19 133 2 50 29 124 56 154 27 31 33 20 13 -24 -25
-56 -25 -99 1 -132 21 -26 56 -33 107 -20 20 6 22 12 22 80 0 62 5 84 29 132
74 147 109 131 80 -36 -14 -80 -2 -130 42 -166 30 -25 72 -33 95 -18 22 14 33
50 40 128 7 89 15 104 52 104 47 0 62 -25 62 -106 0 -40 3 -79 6 -88 3 -9 25
-21 47 -27 38 -10 43 -9 60 12 15 19 18 36 15 91 -7 102 27 132 102 93 29 -15
35 -30 45 -120 3 -27 9 -53 13 -57 4 -4 29 -11 55 -14 41 -6 51 -4 72 16 29
27 32 73 10 135 -8 22 -15 44 -15 48 0 18 41 -16 74 -62 31 -42 36 -56 36
-102 0 -30 -5 -72 -10 -94 -21 -90 -32 -260 -22 -339 15 -119 34 -123 31 -6
-3 85 10 271 27 387 6 41 7 42 27 28 12 -8 29 -15 38 -15 30 0 69 41 83 88 13
42 22 38 18 -8 -1 -8 -4 -58 -6 -110 -3 -52 -8 -131 -12 -176 -4 -63 -2 -83 9
-92 20 -17 29 8 21 59 -4 21 1 86 11 145 23 139 17 219 -16 248 -34 29 -41 52
-22 67 13 11 18 10 33 -8 9 -12 20 -39 23 -60 8 -50 46 -88 80 -79 28 7 57 59
57 102 0 52 19 10 34 -74 10 -56 12 -93 5 -115 -12 -43 -39 -196 -39 -224 0
-13 4 -23 9 -23 4 0 12 33 16 73 4 45 14 85 27 105 18 29 20 45 15 119 -3 61
-2 82 6 74 16 -16 48 -13 69 6 22 20 24 72 3 139 -14 48 -8 73 14 59 27 -16
40 -68 47 -181 l8 -119 16 70 c24 100 18 151 -25 215 -36 53 -43 84 -24 95 24
15 132 -131 140 -190 1 -11 -1 -55 -5 -97 -9 -85 -2 -148 17 -148 11 0 17 58
21 205 1 45 9 55 46 55 55 0 62 32 26 114 -23 51 -23 56 -7 70 29 27 44 7 96
-137 18 -51 36 -119 40 -150 9 -73 21 -63 40 34 9 41 19 84 24 95 8 17 117
112 229 197 14 11 13 0 -10 -90 l-10 -42 -44 6 c-56 7 -78 -11 -99 -80 -19
-65 -19 -125 1 -182 15 -45 14 -49 -10 -113 -14 -37 -33 -107 -41 -156 -9 -48
-30 -122 -46 -164 -17 -41 -34 -98 -40 -126 -13 -71 -77 -273 -101 -321 -16
-31 -23 -69 -28 -170 -4 -71 -15 -155 -24 -185 -9 -30 -16 -64 -16 -75 0 -12
-13 -36 -29 -54 -16 -18 -31 -49 -35 -72 -6 -36 -28 -63 -219 -253 -268 -269
-336 -326 -387 -326 -16 0 -254 104 -288 126 -5 3 28 66 50 93 36 47 55 139
63 297 4 100 9 125 60 274 30 91 55 183 55 206 0 22 -9 74 -20 115 -100 363
-99 356 -84 565 6 95 5 103 -15 123 -19 19 -32 21 -143 21 -68 0 -140 5 -161
11 -45 12 -242 15 -277 4 -14 -4 -86 -11 -161 -14 -99 -4 -141 -10 -154 -21
-16 -14 -17 -28 -12 -170 8 -175 4 -199 -63 -430 -24 -82 -43 -167 -43 -195 0
-35 15 -97 52 -205 49 -143 54 -165 61 -285 12 -195 24 -240 82 -322 18 -24
28 -48 25 -57 -9 -22 -27 -20 -27 2 0 11 -14 38 -31 62 -34 46 -51 123 -64
280 -4 47 -12 93 -17 103 -13 26 -37 21 -49 -10 -34 -92 -83 -176 -112 -194
-56 -36 -169 -9 -348 82 -52 27 -101 49 -107 49 -7 0 -12 -13 -12 -29 0 -31
32 -67 250 -276 152 -146 201 -185 231 -185 13 0 69 20 124 45 55 25 102 45
105 44 9 0 -173 -91 -211 -105 -35 -12 -40 -11 -81 15 -62 40 -261 226 -415
389 l-133 140 0 119 c0 65 5 147 11 183 24 143 10 155 -46 38 -22 -45 -54 -96
-71 -115 -49 -52 -73 -46 -179 43 -88 74 -150 114 -178 114 -19 0 -134 86
-147 111 -13 23 -8 104 10 184 7 28 12 84 13 125 2 61 -2 82 -18 105 l-20 30
-8 -55 c-19 -115 -31 -155 -53 -164 -12 -5 -36 -31 -54 -57 -18 -26 -39 -50
-47 -53 -43 -17 -363 209 -483 341 -79 86 -104 148 -103 253 0 47 6 108 12
135 22 90 23 125 12 243 -7 64 -16 216 -20 337 -8 209 -8 221 11 248 l19 28
-41 120 -42 121 -7 227 c-7 221 -8 227 -35 277 -30 57 -46 163 -46 314 0 78
15 168 26 157 3 -2 5 -58 6 -123z m5458 -22 c0 -162 -16 -274 -46 -333 -26
-48 -27 -58 -34 -282 l-8 -232 -40 -111 c-39 -108 -39 -110 -21 -133 16 -19
18 -37 14 -139 -7 -207 -15 -355 -26 -462 -9 -93 -8 -120 11 -230 36 -207 18
-282 -97 -402 -110 -114 -294 -252 -422 -318 -49 -25 -57 -21 -107 51 -15 21
-33 39 -41 39 -20 0 -39 51 -53 143 -12 71 -14 77 -28 63 -23 -23 -27 -126 -8
-243 25 -159 23 -175 -26 -217 -23 -20 -43 -34 -46 -32 -2 3 8 67 23 143 24
122 27 153 21 263 -3 69 -2 130 2 137 6 10 16 10 45 1 20 -6 38 -9 40 -7 2 2
18 63 35 134 17 72 45 182 62 245 17 63 33 122 35 130 2 8 9 38 15 65 6 28 15
156 20 285 l8 235 51 200 c52 208 164 591 199 682 23 61 92 187 98 180 12 -11
-62 -551 -99 -727 -25 -119 -29 -316 -9 -410 13 -60 14 -62 32 -167 12 -65 11
-80 -10 -168 -12 -54 -44 -168 -71 -254 -60 -189 -69 -240 -45 -253 14 -8 17
-25 15 -111 -3 -124 3 -147 38 -147 58 0 114 60 208 223 15 26 30 47 35 47 19
0 25 71 26 320 0 163 7 332 18 440 l16 174 -30 24 c-39 30 -38 53 5 144 42 88
61 176 70 318 6 110 22 258 32 300 3 14 17 52 31 85 22 54 25 78 29 230 5 181
7 200 23 190 6 -4 10 -52 10 -113z m-4468 54 c130 -19 175 -38 241 -101 52
-49 94 -124 102 -182 3 -21 0 -78 -8 -126 -13 -87 -13 -89 10 -115 37 -43 52
-82 42 -106 -5 -12 -18 -73 -29 -136 l-21 -115 34 -67 34 -66 -43 -37 c-51
-42 -52 -46 -24 -180 11 -53 20 -119 20 -146 0 -42 -3 -49 -19 -49 -11 0 -29
-15 -41 -36 -34 -54 -70 -132 -70 -150 0 -10 -25 10 -61 50 -33 36 -72 69 -85
72 -53 13 -284 302 -284 355 0 11 -6 30 -14 42 -20 32 -48 197 -51 302 -1 50
-6 176 -10 280 -5 141 -4 205 6 250 14 66 15 100 7 190 -3 33 -3 66 0 73 4 11
29 12 121 8 64 -4 128 -8 143 -10z m3712 -46 c0 -30 -2 -77 -3 -105 -2 -27 2
-72 8 -100 9 -36 10 -129 5 -325 -11 -477 -38 -571 -235 -806 -46 -55 -82 -88
-112 -102 -24 -11 -66 -46 -94 -77 l-51 -56 -43 88 c-29 57 -52 91 -67 98 -20
9 -23 15 -18 45 3 19 9 78 12 131 l7 97 -32 40 -33 40 19 32 c46 82 63 116 63
130 0 9 -22 59 -50 112 -27 53 -50 108 -50 122 0 30 50 134 76 161 16 16 17
27 5 129 -13 127 -6 163 49 240 70 96 157 139 310 152 36 3 67 8 70 10 2 3 40
3 85 2 l80 -3 -1 -55z m91 23 c-4 -21 -13 -74 -22 -118 -12 -61 -13 -104 -7
-185 9 -119 11 -266 5 -420 -9 -208 -18 -160 -17 90 1 140 -2 299 -6 353 -4
55 -3 109 2 121 4 12 11 49 14 82 9 82 16 114 27 114 6 0 7 -16 4 -37z m-3268
-173 c26 -57 37 -133 28 -205 l-7 -56 -47 3 c-44 3 -46 2 -56 -29 -11 -38 -23
-42 -29 -10 -7 28 -13 177 -8 177 2 0 22 -14 43 -31 43 -34 46 -32 23 13 -13
25 -14 50 -8 151 l7 120 17 -44 c9 -24 26 -64 37 -89z m2454 14 c8 -95 7 -109
-11 -144 -28 -54 -26 -56 19 -21 21 17 41 31 44 31 13 0 -7 -69 -33 -115 -27
-49 -28 -50 -70 -47 -35 3 -47 -1 -71 -24 l-29 -28 0 75 c0 67 5 85 51 189 28
63 58 134 67 157 9 23 18 40 21 38 2 -3 8 -52 12 -111z m-2485 -400 c-3 -25
-13 -58 -22 -74 -18 -30 -13 -60 9 -60 8 0 17 14 21 32 6 31 60 98 78 98 19 0
-16 -407 -36 -427 -4 -4 -15 -3 -24 3 -17 11 -32 50 -50 134 -9 43 -10 41 -11
-37 0 -48 -5 -83 -11 -83 -5 0 -24 21 -40 48 -36 55 -36 80 0 237 25 112 53
175 77 175 13 0 15 -8 9 -46z m1128 -20 c3 -9 6 -26 6 -39 0 -23 27 -96 39
-105 15 -11 51 -202 56 -296 6 -125 -9 -177 -67 -229 -22 -20 -46 -34 -54 -31
-7 3 -16 1 -19 -4 -11 -18 -74 34 -86 69 -25 75 9 356 54 446 20 40 31 80 34
120 2 33 6 66 8 73 6 17 22 15 29 -4z m-274 -105 c3 -30 15 -72 27 -94 40 -77
56 -152 50 -239 -3 -45 -13 -102 -22 -127 -18 -52 -79 -129 -101 -129 -29 0
-74 31 -90 62 -27 51 -14 202 24 298 16 41 35 109 42 150 13 83 37 143 54 137
6 -2 13 -28 16 -58z m510 -34 c8 -61 22 -103 57 -175 38 -78 47 -107 51 -166
3 -56 1 -79 -13 -105 -10 -19 -26 -51 -37 -72 -19 -38 -20 -38 -61 -32 -23 4
-46 10 -50 12 -5 3 -7 31 -5 63 4 74 -6 85 -21 24 -9 -37 -15 -44 -24 -35 -9
9 -12 64 -11 189 1 172 2 179 32 252 16 41 36 90 42 108 7 18 17 29 21 25 5
-5 13 -44 19 -88z m255 30 c6 -28 29 -89 51 -135 51 -105 72 -218 47 -256 -8
-13 -18 -24 -22 -24 -4 0 -8 -10 -8 -22 -1 -13 -6 -32 -11 -43 -6 -11 -14 -38
-18 -60 -6 -24 -15 -41 -25 -43 -25 -5 -74 43 -99 95 -19 40 -21 59 -17 113 9
101 17 142 34 185 9 23 18 84 21 143 4 88 7 103 21 100 10 -2 19 -20 26 -53z
m868 -21 c9 -27 23 -59 29 -71 7 -14 8 -46 4 -87 -8 -83 8 -93 24 -15 10 48
15 57 23 44 25 -45 -31 -195 -72 -195 -10 0 -21 -9 -24 -20 -7 -26 -29 -25
-72 3 l-35 22 -1 90 c-2 124 1 176 13 200 16 31 71 86 83 82 5 -2 18 -26 28
-53z m-544 -83 c24 -108 24 -255 -1 -294 -10 -14 -18 -36 -18 -48 0 -12 -17
-56 -37 -98 -31 -62 -38 -71 -41 -51 -2 14 -10 39 -18 57 -8 17 -14 40 -14 51
0 11 -7 23 -16 26 -10 4 -14 12 -10 23 4 9 1 20 -6 24 -17 11 -22 122 -9 208
12 78 68 203 98 220 27 15 49 -21 72 -118z m-1670 77 c6 -18 11 -89 12 -158 0
-69 2 -153 2 -186 2 -48 -2 -67 -17 -83 -56 -62 -94 5 -111 192 -7 77 -25 98
-25 29 0 -41 -14 -71 -27 -58 -4 4 -7 48 -6 97 2 67 8 100 23 130 25 47 43 42
35 -9 -5 -32 -4 -35 7 -18 76 109 89 117 107 64z m363 -66 c45 -74 62 -139 52
-207 -6 -45 -23 -95 -24 -69 0 5 -6 18 -12 27 -11 14 -13 4 -15 -59 -1 -42 -7
-82 -13 -89 -6 -8 -15 -26 -19 -42 -8 -27 -10 -24 -46 52 -53 114 -76 212 -68
288 9 90 54 172 91 165 8 -2 33 -31 54 -66z m-178 41 c4 -3 5 -24 0 -47 -4
-22 -8 -116 -8 -208 l-1 -167 -29 -30 c-27 -29 -52 -33 -43 -8 2 7 -7 44 -21
82 -17 49 -26 107 -33 193 -10 142 -5 176 25 190 19 10 90 7 110 -5z m1636 2
c38 -20 60 -63 60 -119 0 -60 -19 -148 -31 -140 -5 3 -9 -11 -9 -32 0 -37 -36
-172 -49 -187 -10 -10 -59 132 -72 208 -13 73 -4 207 16 245 22 42 41 48 85
25z m208 -19 l37 -34 0 -128 c0 -93 -3 -128 -12 -131 -7 -3 -13 -10 -13 -18 0
-22 -29 -40 -42 -27 -9 9 -9 21 1 48 8 22 10 53 6 80 -9 62 -22 55 -17 -10 2
-30 -1 -63 -7 -75 -13 -23 -51 -29 -51 -7 0 7 -9 16 -21 19 -19 5 -20 11 -15
54 3 26 8 90 12 141 5 79 9 95 27 107 32 23 54 18 95 -19z m-2256 -290 c8 -20
7 -28 -6 -41 -10 -10 -14 -25 -10 -39 8 -33 -24 -203 -47 -247 -45 -88 -89
-62 -89 52 0 36 -5 102 -11 147 -12 89 -1 133 35 140 20 4 20 -7 0 -75 -4 -14
-2 -23 5 -23 6 0 11 7 11 16 0 16 36 73 55 86 20 15 46 8 57 -16z m2392 -65
c9 -10 20 -38 24 -62 l8 -44 8 47 c9 62 30 79 59 49 19 -19 22 -32 21 -104 -2
-93 -37 -252 -61 -279 -22 -24 -36 -23 -72 8 -67 56 -71 69 -77 233 l-6 151
24 9 c35 15 53 13 72 -8z m-2305 -15 c9 -11 10 -29 2 -72 -13 -70 -14 -124 -2
-124 4 0 11 19 14 41 6 47 28 75 51 66 23 -9 23 -262 0 -295 -22 -31 -37 -28
-78 18 l-36 40 0 125 c0 104 -2 123 -14 119 -9 -3 -17 -23 -19 -47 -2 -23 -3
-13 -1 23 6 102 12 114 60 119 6 0 17 -5 23 -13z m2177 -63 c4 -14 -1 -81 -10
-147 -9 -67 -16 -135 -16 -152 0 -35 -38 -97 -62 -102 -8 -2 -28 8 -44 21 -25
22 -29 33 -32 93 -2 38 3 107 11 154 10 51 12 91 7 101 -7 12 -3 19 17 28 31
14 49 2 58 -40 4 -16 11 -29 16 -29 11 0 11 7 -1 49 -11 41 -6 51 25 51 18 0
26 -7 31 -27z m829 -45 c-14 -29 -25 -64 -25 -78 0 -14 -16 -77 -36 -140 -20
-63 -39 -127 -44 -141 -16 -52 -32 -70 -86 -94 -62 -28 -63 -29 -42 -173 l12
-84 -30 -27 c-30 -25 -31 -29 -43 -163 -11 -131 -14 -142 -62 -255 -100 -230
-128 -315 -128 -384 -1 -63 -45 -367 -56 -377 -15 -15 -15 16 0 110 9 56 23
160 30 230 16 138 54 268 130 438 51 114 66 176 70 278 2 42 4 85 4 95 1 10
15 31 33 47 l32 30 -12 83 c-7 46 -12 95 -12 109 0 31 36 63 80 73 17 4 37 16
45 28 21 30 60 154 81 262 11 58 28 107 47 138 16 26 30 47 32 47 2 0 -7 -24
-20 -52z m-1001 -52 c-3 -22 -12 -66 -18 -98 -7 -31 -11 -71 -9 -90 7 -59 -33
-188 -58 -188 -19 0 -79 145 -95 227 -24 129 1 191 71 180 21 -3 46 0 61 8 41
21 55 10 48 -39z m-1764 31 c70 -3 71 -4 67 -135 -3 -105 -7 -124 -34 -182
-36 -77 -55 -97 -72 -76 -19 23 -41 116 -41 176 0 30 -4 71 -9 90 -5 19 -12
59 -16 89 l-6 53 33 -6 c18 -4 53 -8 78 -9z m248 -130 c31 -63 35 -82 33 -150
-1 -32 -10 -45 -66 -98 -36 -34 -65 -68 -65 -75 0 -20 -18 -17 -24 4 -2 9 -8
66 -11 127 -4 60 -10 119 -14 130 -4 11 -5 54 -2 95 5 67 9 76 31 87 23 12 27
11 56 -22 17 -19 45 -63 62 -98z m186 99 c47 -1 48 -2 74 -51 37 -72 35 -151
-8 -275 -37 -108 -61 -143 -84 -120 -14 16 -49 146 -87 333 -25 119 -21 135
31 120 14 -3 47 -7 74 -7z m811 0 c17 0 37 3 45 7 9 4 23 2 32 -5 16 -12 16
-20 -3 -108 -23 -113 -76 -309 -89 -330 -18 -28 -42 4 -78 101 -46 123 -50
228 -13 302 22 44 26 48 50 41 14 -4 40 -8 56 -8z m221 -45 c3 -3 17 8 34 24
l29 28 6 -26 c7 -27 5 -62 -13 -182 -6 -38 -14 -105 -17 -147 -4 -43 -11 -78
-16 -78 -5 0 -9 6 -9 13 0 13 -40 58 -87 98 -17 14 -36 35 -42 47 -26 48 -3
143 55 231 l37 56 10 -30 c5 -17 11 -32 13 -34z m-436 34 c56 -4 60 -39 16
-161 -99 -277 -100 -280 -128 -269 -10 4 -18 25 -22 53 -3 26 -15 83 -26 127
-23 94 -25 153 -6 198 23 56 44 70 90 62 23 -4 57 -8 76 -10z m-308 -22 c43
-5 48 -8 62 -44 21 -52 20 -107 -4 -207 -11 -46 -20 -96 -20 -112 0 -15 -9
-38 -19 -51 -31 -38 -27 -45 -138 263 l-35 96 28 37 c23 30 32 36 53 30 14 -3
47 -8 73 -12z m83 -733 c28 -7 59 -6 102 2 55 10 67 9 102 -7 34 -15 53 -17
108 -10 125 14 136 13 147 -16 7 -20 3 -48 -18 -114 -31 -98 -30 -117 10 -216
55 -136 96 -266 101 -319 5 -49 -1 -75 -46 -207 -59 -177 -71 -242 -71 -414 0
-187 -9 -224 -69 -281 -68 -65 -102 -65 -39 0 25 26 51 57 57 69 7 13 11 85
11 187 l0 165 54 173 c30 95 62 201 70 235 18 70 23 51 -69 298 -21 55 -46
128 -56 163 l-18 62 25 82 c37 126 39 122 -53 113 -43 -5 -98 -8 -123 -7 -144
5 -293 1 -347 -10 -61 -11 -114 -4 -195 27 -15 6 -18 2 -18 -21 0 -16 7 -54
15 -84 25 -94 20 -136 -44 -328 -32 -97 -61 -191 -65 -209 -6 -24 6 -71 48
-203 l56 -171 1 -152 c0 -84 4 -188 8 -232 l9 -80 61 -57 c33 -31 56 -60 51
-63 -17 -11 -73 29 -105 74 l-30 42 -7 199 c-7 214 -16 261 -80 430 -27 73
-32 98 -32 180 0 92 1 100 53 230 85 217 85 212 51 327 -41 143 -38 146 135
128 55 -5 76 -4 100 9 35 18 54 19 110 6z m115 -656 c95 -80 117 -278 47 -407
-44 -80 -138 -102 -200 -47 -19 16 -45 54 -58 82 -43 98 -27 275 30 342 51 60
129 73 181 30z"/>
<path d="M4709 10943 c-23 -21 -58 -62 -79 -93 -21 -31 -45 -62 -54 -69 -9 -7
-16 -20 -16 -27 0 -24 28 -15 51 17 12 17 55 55 95 85 70 52 95 88 79 113 -11
20 -34 12 -76 -26z"/>
<path d="M4515 10539 c-57 -29 -110 -91 -149 -173 -70 -147 -67 -200 7 -114
25 29 86 100 136 158 94 109 113 150 68 150 -12 0 -40 -9 -62 -21z"/>
<path d="M4843 10120 c-74 -42 -173 -138 -252 -244 -108 -144 -124 -173 -110
-198 15 -28 6 -116 -16 -158 -21 -41 -53 -71 -130 -123 -84 -56 -135 -107
-135 -134 0 -13 4 -23 10 -23 5 0 40 27 77 61 80 72 146 119 166 119 9 0 18
-21 27 -57 7 -32 28 -114 47 -183 23 -84 36 -161 42 -235 5 -73 14 -125 27
-155 15 -34 18 -55 13 -85 -14 -74 -10 -114 12 -136 38 -38 44 -14 43 184 -1
209 -16 298 -85 507 -37 112 -41 135 -41 220 0 113 22 194 87 317 68 129 190
274 282 335 49 32 -5 22 -64 -12z"/>
<path d="M3740 9034 c-107 -46 -185 -204 -150 -308 12 -39 51 -66 92 -66 99 1
218 148 218 268 0 66 -51 123 -108 122 -9 -1 -33 -8 -52 -16z"/>
<path d="M5847 8233 c-21 -20 7 -100 58 -168 12 -16 32 -49 44 -72 12 -24 25
-43 30 -43 19 0 18 16 -4 60 -13 26 -32 78 -41 114 -22 88 -61 136 -87 109z"/>
<path d="M6073 6541 c-20 -13 -42 -43 -64 -86 -30 -61 -33 -76 -39 -198 -5
-110 -10 -139 -29 -176 -13 -24 -30 -66 -37 -93 -12 -37 -32 -66 -90 -126 -89
-90 -175 -215 -214 -310 -48 -113 -63 -209 -55 -347 8 -148 30 -282 53 -315 9
-14 18 -38 19 -55 6 -53 34 -129 64 -169 62 -84 207 -162 354 -189 110 -20
115 -18 115 57 0 46 5 70 19 87 47 60 53 87 49 198 -3 78 -8 115 -22 141 -31
59 -31 104 -2 154 24 42 62 145 86 234 6 23 14 42 19 42 11 0 86 -166 106
-235 19 -65 15 -94 -40 -264 -62 -191 -57 -256 26 -337 40 -39 40 -39 117 -37
87 1 171 23 252 63 74 38 109 65 163 128 63 74 103 155 127 253 29 120 26 191
-9 276 -32 78 -61 185 -61 226 0 48 -22 128 -40 145 -28 27 -168 312 -180 367
-6 28 -20 59 -30 70 -13 14 -29 70 -50 170 -36 171 -61 237 -101 266 -15 11
-31 28 -34 39 -12 37 -47 23 -116 -48 -86 -88 -101 -119 -107 -215 -5 -77 -17
-109 -26 -65 -3 13 -7 57 -10 99 -5 87 -35 169 -73 199 -14 11 -26 25 -27 32
-6 43 -59 51 -113 19z m425 -127 c40 -27 46 -54 52 -201 l5 -142 73 -67 c90
-82 137 -144 192 -255 97 -191 145 -397 139 -592 -4 -107 -6 -117 -41 -188
-66 -133 -197 -229 -362 -263 -77 -16 -103 -11 -134 28 -41 53 -38 90 14 193
66 131 68 164 15 287 -23 55 -45 125 -51 165 -5 37 -18 88 -28 112 -11 24 -22
61 -26 82 -8 43 -33 59 -51 34 -7 -10 -18 -45 -24 -80 -24 -125 -44 -185 -102
-307 -66 -141 -72 -176 -37 -243 29 -58 31 -168 2 -217 -30 -51 -93 -92 -153
-98 -99 -9 -185 59 -252 202 -86 185 -125 469 -84 625 34 131 98 223 291 421
158 162 155 156 174 325 12 96 30 155 50 155 12 0 39 -41 44 -66 21 -105 79
-266 102 -285 23 -19 46 11 50 63 2 26 22 84 54 148 30 62 51 121 52 143 1 42
4 43 36 21z"/>
<path d="M6475 6323 c-3 -13 -23 -64 -45 -111 -21 -48 -43 -107 -49 -130 -10
-48 -45 -92 -72 -92 -20 0 -59 45 -59 67 0 8 -9 35 -21 60 -11 25 -26 74 -34
108 -15 73 -21 85 -41 85 -11 0 -14 -21 -14 -107 -1 -150 -22 -193 -140 -283
-109 -83 -181 -157 -240 -246 -74 -113 -85 -160 -84 -354 1 -148 4 -174 28
-253 47 -156 126 -288 208 -347 48 -35 77 -37 132 -10 87 42 113 145 61 242
-36 68 -32 107 21 223 69 151 92 223 105 326 12 100 26 139 60 163 40 28 71
-9 84 -99 4 -28 18 -83 31 -124 13 -40 24 -83 24 -94 0 -12 18 -51 40 -88 76
-129 75 -206 -7 -361 -53 -100 -52 -105 13 -150 54 -38 95 -36 185 9 83 42 87
44 136 93 97 99 133 191 133 348 0 232 -58 436 -173 607 -40 60 -180 205 -197
205 -25 0 -40 64 -47 194 -4 94 -10 136 -19 140 -7 3 -15 -6 -19 -21z"/>
<path d="M6760 6375 c0 -30 47 -128 111 -231 23 -38 55 -93 71 -121 28 -50 58
-70 58 -39 0 8 -17 52 -38 98 -21 46 -48 108 -60 138 -20 49 -110 169 -133
178 -5 2 -9 -8 -9 -23z"/>
<path d="M5888 6229 c-10 -6 -18 -15 -18 -21 0 -17 -84 -130 -122 -164 -31
-28 -36 -39 -42 -95 -5 -49 -3 -66 9 -78 13 -14 20 -10 64 36 26 29 67 81 90
116 67 103 79 240 19 206z"/>
<path d="M2922 6105 c-25 -54 -7 -164 58 -367 25 -79 37 -102 63 -122 28 -21
190 -105 257 -132 26 -11 106 1 328 49 112 24 113 24 137 5 31 -24 70 -21 70
7 0 50 -148 64 -296 27 l-75 -18 -28 38 c-15 21 -51 52 -79 69 -51 29 -54 30
-152 25 -136 -7 -162 3 -196 73 -34 69 -48 138 -56 269 -3 56 -9 102 -13 102
-4 0 -12 -11 -18 -25z"/>
<path d="M6992 5853 c2 -5 18 -37 37 -73 19 -36 65 -157 103 -270 51 -152 68
-192 64 -155 -2 28 -19 91 -36 140 -42 117 -44 135 -22 163 l18 23 50 -62 c27
-34 52 -67 56 -73 4 -6 10 -8 13 -4 16 16 -243 318 -273 318 -8 0 -12 -3 -10
-7z"/>
<path d="M5426 5547 c-54 -95 -120 -301 -109 -335 27 -88 43 -94 43 -18 0 68
25 151 89 290 28 60 48 113 45 118 -13 21 -36 3 -68 -55z"/>
<path d="M4990 5576 c-113 -34 -123 -41 -117 -84 9 -55 20 -57 74 -18 27 19
80 50 116 67 119 55 73 78 -73 35z"/>
<path d="M4565 5419 c-17 -5 -75 -7 -131 -3 -98 6 -102 5 -162 -25 -33 -17
-68 -28 -76 -25 -21 8 -21 -20 0 -40 21 -22 44 -20 110 9 45 20 73 25 138 25
46 0 102 6 127 14 24 8 56 17 72 20 15 4 27 13 27 21 0 17 -56 19 -105 4z"/>
<path d="M7594 5345 c-21 -32 -11 -45 34 -45 20 0 111 -9 202 -20 201 -24 240
-25 240 -6 0 10 -19 16 -62 21 -104 11 -336 53 -357 65 -29 15 -39 13 -57 -15z"/>
<path d="M6302 5258 c-6 -23 -4 -46 6 -76 15 -46 13 -115 -9 -219 -9 -46 -10
-68 -1 -85 11 -23 11 -23 11 -1 1 12 19 59 41 104 51 105 53 157 10 247 -16
34 -34 62 -39 62 -6 0 -14 -15 -19 -32z"/>
<path d="M5377 5013 c-4 -3 -7 -40 -7 -80 0 -87 15 -122 97 -231 75 -98 120
-122 95 -49 -26 78 -133 341 -143 353 -12 15 -31 18 -42 7z"/>
<path d="M7143 4808 c-12 -43 -63 -126 -128 -206 -28 -35 -35 -52 -35 -88 0
-24 5 -44 10 -44 6 0 10 4 10 10 0 15 40 48 97 80 40 23 57 41 78 81 34 69 41
125 22 172 -21 49 -40 47 -54 -5z"/>
<path d="M6128 4395 c-3 -3 4 -32 16 -63 13 -31 26 -72 29 -91 9 -42 24 -61
48 -61 16 0 17 8 12 93 -3 50 -11 97 -17 104 -13 14 -78 27 -88 18z"/>
<path d="M8130 10386 c0 -1 27 -24 60 -50 115 -90 282 -322 388 -538 54 -111
78 -145 68 -95 -3 12 -8 42 -11 67 -11 94 -139 306 -265 440 -32 34 -36 37
-16 10 131 -175 219 -310 202 -310 -3 0 -13 15 -22 33 -33 64 -126 196 -187
266 -75 85 -217 202 -217 177z"/>
<path d="M6265 10061 c-69 -29 -117 -134 -117 -251 1 -212 151 -330 261 -205
89 102 83 331 -11 423 -35 33 -97 49 -133 33z"/>
<path d="M8615 7681 c-20 -17 -203 -110 -285 -144 -126 -52 -258 -94 -341
-108 -57 -9 -137 -10 -344 -2 l-270 10 -38 -36 c-60 -56 -152 -183 -191 -263
-59 -120 -70 -180 -63 -348 10 -223 46 -372 117 -475 27 -39 36 -45 78 -50 72
-10 75 -11 61 -36 -10 -19 -5 -27 48 -78 45 -43 96 -76 221 -141 163 -84 232
-135 232 -169 0 -18 4 -18 70 5 l70 25 272 -46 c150 -26 318 -54 373 -63 63
-11 152 -17 240 -16 118 0 150 4 203 23 202 70 342 222 385 416 81 366 -8 784
-244 1142 -21 32 -41 53 -53 53 -10 0 -100 54 -200 119 -177 117 -303 191
-322 191 -6 0 -14 -4 -19 -9z"/>
<path d="M3885 7627 c-70 -37 -259 -161 -360 -236 -38 -28 -74 -51 -81 -51
-15 0 -86 -131 -129 -238 -129 -329 -174 -664 -120 -898 53 -229 228 -382 485
-423 111 -18 174 -13 515 45 182 30 344 57 360 60 239 39 359 89 595 247 184
124 248 175 268 214 51 101 74 221 87 458 6 108 5 127 -15 184 -44 131 -180
366 -239 412 -30 24 -94 25 -256 3 -162 -22 -341 -22 -428 0 -144 36 -409 149
-547 234 -46 29 -64 28 -135 -11z"/>
<path d="M4175 3670 c-5 -8 -11 -51 -13 -96 -5 -89 14 -175 46 -209 35 -38 74
-116 102 -200 31 -98 37 -107 46 -71 12 48 -3 111 -79 326 -102 290 -92 266
-102 250z"/>
<path d="M4524 2555 c-22 -34 -94 -202 -101 -236 -5 -24 -1 -30 23 -41 16 -7
34 -19 40 -27 9 -12 14 -4 23 38 6 28 11 60 11 70 0 11 11 43 25 73 44 94 27
196 -21 123z"/>
<path d="M5554 2043 c-18 -43 -35 -243 -27 -316 6 -57 26 -97 47 -97 20 0 23
24 13 100 -4 36 -6 129 -2 208 6 150 -2 176 -31 105z"/>
<path d="M7190 2030 c0 -17 -9 -58 -20 -91 -14 -41 -20 -80 -18 -118 4 -60 6
-58 34 34 l18 60 8 -120 c10 -159 27 -261 41 -244 5 5 -13 480 -18 497 -3 6
-14 12 -25 12 -16 0 -20 -7 -20 -30z"/>
<path d="M6802 1343 c-9 -17 -13 -49 -28 -193 -8 -84 -28 -151 -57 -194 -15
-21 -27 -47 -27 -56 0 -18 139 -89 226 -115 43 -13 45 -12 86 18 66 48 428
408 428 426 0 9 -5 23 -10 31 -8 13 -12 13 -32 0 -100 -64 -299 -140 -366
-140 -39 0 -50 5 -82 39 -22 23 -50 71 -69 120 -33 80 -52 98 -69 64z"/>
<path d="M4352 4554 c-7 -17 -11 -64 -10 -114 2 -47 -3 -141 -11 -210 -9 -84
-12 -175 -8 -275 17 -400 125 -653 335 -786 37 -23 81 -57 98 -76 38 -42 53
-37 89 29 15 27 40 65 56 83 16 17 26 34 24 37 -7 7 -34 149 -41 213 -3 28 -8
53 -10 57 -9 15 17 57 45 74 17 10 31 24 31 30 0 7 -15 35 -34 63 -34 51 -35
52 -20 94 8 23 25 81 38 129 l24 86 -35 34 c-20 18 -44 52 -54 75 -18 38 -18
45 -4 100 21 85 23 102 12 152 -11 52 -42 99 -103 154 -51 46 -123 64 -295 73
l-115 7 -12 -29z"/>
<path d="M8025 4569 c-120 -16 -158 -33 -224 -105 -34 -38 -61 -77 -65 -95 -9
-46 -7 -100 4 -139 30 -100 20 -140 -61 -243 -46 -58 -46 -58 22 -177 27 -47
49 -96 49 -108 0 -12 -15 -51 -32 -87 -29 -59 -31 -68 -18 -88 38 -61 40 -71
30 -173 -5 -55 -12 -107 -15 -115 -8 -21 62 -156 87 -170 17 -9 26 -5 62 29
22 21 66 55 96 75 75 49 107 81 162 158 78 109 135 273 157 454 14 119 14 371
-1 493 -13 110 -14 142 -3 193 5 26 2 46 -10 73 l-17 36 -77 -1 c-42 -1 -107
-6 -146 -10z"/>
<path d="M6258 1840 c-42 -32 -71 -114 -69 -194 2 -91 17 -141 57 -182 38 -41
71 -44 113 -9 42 36 66 105 66 190 0 85 -24 154 -66 190 -37 30 -68 32 -101 5z"/>
</g>
</svg>
